<?xml version="1.0" encoding="UTF-8" standalone="no"?>
<svg
   xmlns:dc="http://purl.org/dc/elements/1.1/"
   xmlns:cc="http://creativecommons.org/ns#"
   xmlns:rdf="http://www.w3.org/1999/02/22-rdf-syntax-ns#"
   xmlns:svg="http://www.w3.org/2000/svg"
   xmlns="http://www.w3.org/2000/svg"
   viewBox="0 0 958.66669 810.66669"
   height="810.66669"
   width="958.66669"
   xml:space="preserve"
   id="svg2"
   version="1.1"><metadata
     id="metadata8"><rdf:RDF><cc:Work
         rdf:about=""><dc:format>image/svg+xml</dc:format><dc:type
           rdf:resource="http://purl.org/dc/dcmitype/StillImage" /></cc:Work></rdf:RDF></metadata><defs
     id="defs6"><clipPath
       id="clipPath20"
       clipPathUnits="userSpaceOnUse"><path
         id="path18"
         d="M 0,10 H 7182.5 V 6070 H 0 Z" /></clipPath></defs><g
     transform="matrix(1.3333333,0,0,-1.3333333,0,810.66667)"
     id="g10"><g
       transform="scale(0.1)"
       id="g12"><g
         id="g14"><g
           clip-path="url(#clipPath20)"
           id="g16"><path
             id="path22"
             style="fill:none;stroke:#000000;stroke-width:7.5;stroke-linecap:round;stroke-linejoin:round;stroke-miterlimit:10;stroke-dasharray:none;stroke-opacity:1"
             d="m 1355,3025 h 4500 l -1820.29,1322.52 347.65,-1069.94 173.82,534.97 -227.54,-165.32 h 281.25 l -227.53,165.32 86.91,-267.49 86.91,267.49 -455.07,-330.63 h 281.25 l -227.54,165.31 86.91,-267.48 86.91,267.48 -227.53,-165.31 h 562.5 l -227.54,165.31 86.91,-267.48 86.91,267.48 -227.53,-165.31 h 281.25 l -455.07,330.63 86.91,-267.49 86.91,267.49 -227.54,-165.32 h 281.25 l -227.53,165.32 173.82,-534.97 86.91,267.48 -227.54,-165.31 h 281.25 l -227.53,165.31 86.91,-267.48 347.64,1069.94 -455.07,-330.63 h 281.25 l -227.54,165.31 86.91,-267.48 86.91,267.48 -227.53,-165.31 h 562.5 l -227.54,165.31" /><path
             id="path24"
             style="fill:none;stroke:#000000;stroke-width:7.5;stroke-linecap:round;stroke-linejoin:round;stroke-miterlimit:10;stroke-dasharray:none;stroke-opacity:1"
             d="m 4609.89,4182.2 86.91,-267.48 86.91,267.48 -227.53,-165.31 h 281.25 l -455.07,330.63 86.91,-267.49 86.91,267.49 -227.54,-165.32 h 281.25 l -227.53,165.32 173.82,-534.97 86.91,267.48 -227.54,-165.31 h 281.25 l -227.53,165.31 86.91,-267.48 173.82,534.97 -227.54,-165.32 h 281.25 l -227.53,165.32 86.91,-267.49 86.91,267.49 -910.14,-661.26 h 562.5 l -227.54,165.31 86.91,-267.48 86.91,267.48 -227.53,-165.31 h 281.25 l -455.07,330.63 86.91,-267.49 86.91,267.49 -227.54,-165.32 h 281.25 l -227.53,165.32 173.82,-534.97 86.91,267.48 -227.54,-165.31 h 281.25 l -227.53,165.31 86.91,-267.48 173.82,534.97" /><path
             id="path26"
             style="fill:none;stroke:#000000;stroke-width:7.5;stroke-linecap:round;stroke-linejoin:round;stroke-miterlimit:10;stroke-dasharray:none;stroke-opacity:1"
             d="m 4274.93,4016.89 -227.54,-165.32 h 281.25 l -227.53,165.32 86.91,-267.49 86.91,267.49 -455.07,-330.63 h 281.25 l -227.54,165.31 86.91,-267.48 86.91,267.48 -227.53,-165.31 h 1125 l -455.07,330.63 86.91,-267.49 86.91,267.49 -227.54,-165.32 h 281.25 l -227.53,165.32 173.82,-534.97 86.91,267.48 -227.54,-165.31 h 281.25 l -227.53,165.31 86.91,-267.48 173.82,534.97 -227.54,-165.32 h 281.25 l -227.53,165.32 86.91,-267.49 86.91,267.49 -455.07,-330.63 h 281.25 l -227.54,165.31 86.91,-267.48 86.91,267.48 -227.53,-165.31 h 562.5 l -227.54,165.31 86.91,-267.48 86.91,267.48 -227.53,-165.31 h 281.25" /><path
             id="path28"
             style="fill:none;stroke:#000000;stroke-width:7.5;stroke-linecap:round;stroke-linejoin:round;stroke-miterlimit:10;stroke-dasharray:none;stroke-opacity:1"
             d="m 4944.86,3686.26 -910.15,661.26 173.83,-534.97 86.91,267.48 -227.54,-165.31 h 281.25 l -227.54,165.31 86.92,-267.48 173.82,534.97 -227.54,-165.32 h 281.25 l -227.53,165.32 86.91,-267.49 86.91,267.49 -455.07,-330.63 h 281.25 L 3981,4182.2 l 86.91,-267.48 86.91,267.48 -227.53,-165.31 h 562.5 l -227.54,165.31 86.91,-267.48 86.91,267.48 -227.53,-165.31 h 281.25 l -455.08,330.63 86.91,-267.49 86.92,267.49 L 3981,4182.2 h 281.25 L 4034.71,4347.52 4730,2207.64 5077.64,3277.58 4622.57,2946.95 h 281.25 l -227.53,165.32 86.91,-267.49 86.91,267.49 -227.54,-165.32 h 562.5 l -227.53,165.32 86.91,-267.49" /><path
             id="path30"
             style="fill:none;stroke:#000000;stroke-width:7.5;stroke-linecap:round;stroke-linejoin:round;stroke-miterlimit:10;stroke-dasharray:none;stroke-opacity:1"
             d="m 5044.45,2844.78 86.91,267.49 -227.54,-165.32 h 281.25 l -455.07,330.63 86.91,-267.49 86.91,267.49 -227.53,-165.31 h 281.25 l -227.54,165.31 173.82,-534.97 86.91,267.48 -227.53,-165.31 h 281.25 l -227.54,165.31 86.91,-267.48 173.82,534.97 -227.53,-165.31 h 281.25 l -227.54,165.31 86.91,-267.49 86.91,267.49 -910.14,-661.26 H 4730 l -227.54,165.31 86.92,-267.48 86.91,267.48 -227.54,-165.31 H 4730 l -455.07,330.63 86.91,-267.49 86.91,267.49 -227.54,-165.32 h 281.25 l -227.53,165.32 173.82,-534.97 86.91,267.48 -227.54,-165.31 h 281.26 l -227.54,165.31 86.91,-267.48 173.82,534.97 -227.53,-165.32" /><path
             id="path32"
             style="fill:none;stroke:#000000;stroke-width:7.5;stroke-linecap:round;stroke-linejoin:round;stroke-miterlimit:10;stroke-dasharray:none;stroke-opacity:1"
             d="m 4395.04,2781.63 h 281.25 l -227.54,165.32 86.91,-267.49 86.91,267.49 -455.07,-330.63 h 281.25 l -227.54,165.31 86.91,-267.48 86.92,267.48 -227.54,-165.31 h 1125 l -455.07,330.63 86.91,-267.49 86.91,267.49 -227.54,-165.32 h 281.25 l -227.53,165.32 173.82,-534.97 86.91,267.48 -227.54,-165.31 h 281.26 l -227.54,165.31 86.91,-267.48 173.82,534.97 -227.53,-165.32 h 281.25 l -227.54,165.32 86.91,-267.49 86.91,267.49 L 4730,2616.32 h 281.25 l -227.54,165.31 86.91,-267.48 86.92,267.48 L 4730,2616.32 h 562.5 l -227.54,165.31 86.92,-267.48 86.91,267.48 -227.54,-165.31 h 281.25 l -910.14,661.26" /><path
             id="path34"
             style="fill:none;stroke:#000000;stroke-width:7.5;stroke-linecap:round;stroke-linejoin:round;stroke-miterlimit:10;stroke-dasharray:none;stroke-opacity:1"
             d="m 4382.36,3277.58 173.82,-534.97 86.91,267.48 -227.54,-165.31 h 281.25 l -227.53,165.31 86.91,-267.48 173.82,534.97 -227.54,-165.31 h 281.25 l -227.53,165.31 86.91,-267.49 86.91,267.49 -455.07,-330.63 h 281.25 l -227.54,165.32 86.91,-267.49 86.91,267.49 -227.53,-165.32 h 562.5 l -227.54,165.32 86.91,-267.49 86.91,267.49 -227.53,-165.32 h 281.25 l -455.07,330.63 86.91,-267.49 86.91,267.49 -227.54,-165.31 h 281.25 l -227.53,165.31 347.64,-1069.94 173.82,534.97 -227.53,-165.32 h 281.25 l -227.54,165.32 86.91,-267.49 86.91,267.49 -455.07,-330.63 H 4730 l -227.54,165.31 86.92,-267.48 86.91,267.48" /><path
             id="path36"
             style="fill:none;stroke:#000000;stroke-width:7.5;stroke-linecap:round;stroke-linejoin:round;stroke-miterlimit:10;stroke-dasharray:none;stroke-opacity:1"
             d="m 4676.29,2577.29 -227.54,-165.31 h 562.5 l -227.54,165.31 86.91,-267.48 86.92,267.48 L 4730,2411.98 h 281.25 l -455.07,330.63 86.91,-267.49 86.91,267.49 -227.54,-165.32 h 281.25 l -227.53,165.32 173.82,-534.97 86.91,267.48 -227.53,-165.31 h 281.24 l -227.53,165.31 86.91,-267.48 695.29,2139.88 -910.15,-661.26 h 562.5 l -227.53,165.31 86.91,-267.48 86.91,267.48 -227.54,-165.31 h 281.25 l -455.07,330.63 86.91,-267.49 86.91,267.49 -227.53,-165.32 h 281.25 l -227.54,165.32 173.82,-534.97 86.91,267.48 -227.53,-165.31 h 281.25 l -227.54,165.31 86.91,-267.48 173.82,534.97 -227.53,-165.32 h 281.25" /><path
             id="path38"
             style="fill:none;stroke:#000000;stroke-width:7.5;stroke-linecap:round;stroke-linejoin:round;stroke-miterlimit:10;stroke-dasharray:none;stroke-opacity:1"
             d="m 5023.93,3851.57 -227.54,165.32 86.91,-267.49 86.91,267.49 -455.07,-330.63 h 281.25 l -227.53,165.31 86.91,-267.48 86.91,267.48 -227.54,-165.31 h 1125 l -455.07,330.63 86.91,-267.49 86.91,267.49 -227.53,-165.32 h 281.25 l -227.54,165.32 173.82,-534.97 86.91,267.48 -227.53,-165.31 h 281.25 l -227.54,165.31 86.91,-267.48 173.82,534.97 -227.53,-165.32 h 281.25 l -227.54,165.32 86.91,-267.49 86.91,267.49 -455.07,-330.63 h 281.25 l -227.53,165.31 86.91,-267.48 86.91,267.48 -227.54,-165.31 h 562.5 l -227.53,165.31 86.91,-267.48 86.91,267.48 -227.54,-165.31 h 281.25 L 4730,4347.52 4903.82,3812.55" /><path
             id="path40"
             style="fill:none;stroke:#000000;stroke-width:7.5;stroke-linecap:round;stroke-linejoin:round;stroke-miterlimit:10;stroke-dasharray:none;stroke-opacity:1"
             d="m 4903.82,3812.55 86.91,267.48 -227.53,-165.31 h 281.25 l -227.54,165.31 86.91,-267.48 173.82,534.97 -227.53,-165.32 h 281.25 l -227.54,165.32 86.91,-267.49 86.91,267.49 -455.07,-330.63 h 281.25 l -227.53,165.31 86.91,-267.48 86.91,267.48 -227.54,-165.31 h 562.5 l -227.53,165.31 86.91,-267.48 86.91,267.48 -227.54,-165.31 h 281.25 l -455.07,330.63 86.91,-267.49 86.91,267.49 -227.53,-165.32 h 281.25 l -227.54,165.32 347.64,-1069.94 173.82,534.97 -227.53,-165.32 h 281.25 l -227.54,165.32 86.91,-267.49 86.91,267.49 -455.07,-330.63 h 281.25 l -227.53,165.31 86.91,-267.48 86.91,267.48 -227.54,-165.31" /><path
             id="path42"
             style="fill:none;stroke:#000000;stroke-width:7.5;stroke-linecap:round;stroke-linejoin:round;stroke-miterlimit:10;stroke-dasharray:none;stroke-opacity:1"
             d="m 4796.39,3481.92 h 562.5 l -227.53,165.31 86.91,-267.48 86.91,267.48 -227.54,-165.31 h 281.25 l -455.07,330.63 86.91,-267.49 86.91,267.49 -227.53,-165.32 h 281.25 l -227.54,165.32 173.82,-534.97 86.91,267.48 -227.53,-165.31 h 281.25 l -227.54,165.31 86.91,-267.48 347.65,1069.94 -455.08,-330.63 h 281.25 l -227.53,165.31 86.91,-267.48 86.91,267.48 -227.54,-165.31 h 562.5 l -227.53,165.31 86.91,-267.48 86.91,267.48 -227.54,-165.31 h 281.25 l -455.07,330.63 86.91,-267.49 86.91,267.49 -227.53,-165.32 h 281.25 l -227.54,165.32 173.82,-534.97 86.92,267.48 -227.54,-165.31 h 281.25 l -227.54,165.31" /><path
             id="path44"
             style="fill:none;stroke:#000000;stroke-width:7.5;stroke-linecap:round;stroke-linejoin:round;stroke-miterlimit:10;stroke-dasharray:none;stroke-opacity:1"
             d="m 5164.55,4080.03 86.91,-267.48 173.83,534.97 -227.54,-165.32 H 5479 l -227.54,165.32 86.92,-267.49 86.91,267.49 L 3605,3025 h 1125 l -455.07,330.63 86.91,-267.49 86.91,267.49 -227.54,-165.31 h 281.25 l -227.53,165.31 173.82,-534.97 86.91,267.48 -227.54,-165.31 h 281.26 l -227.54,165.31 86.91,-267.48 173.82,534.97 -227.53,-165.31 h 281.25 l -227.54,165.31 86.91,-267.49 86.91,267.49 L 4167.5,3025 h 281.25 l -227.54,165.32 86.91,-267.49 86.92,267.49 L 4167.5,3025 H 4730 l -227.54,165.32 86.92,-267.49 86.91,267.49 L 4448.75,3025 H 4730 l -910.14,661.26 173.82,-534.97 86.91,267.48" /><path
             id="path46"
             style="fill:none;stroke:#000000;stroke-width:7.5;stroke-linecap:round;stroke-linejoin:round;stroke-miterlimit:10;stroke-dasharray:none;stroke-opacity:1"
             d="m 4080.59,3418.77 -227.54,-165.31 h 281.25 l -227.53,165.31 86.91,-267.48 173.82,534.97 -227.54,-165.31 h 281.25 l -227.53,165.31 86.91,-267.49 86.91,267.49 -455.07,-330.63 h 281.25 l -227.54,165.32 86.91,-267.49 86.91,267.49 -227.53,-165.32 h 562.5 l -227.54,165.32 86.91,-267.49 86.91,267.49 -227.53,-165.32 h 281.25 l -455.07,330.63 86.91,-267.49 86.91,267.49 -227.54,-165.31 h 281.25 l -227.53,165.31 347.64,-1069.94 173.82,534.97 -227.53,-165.31 h 281.25 l -227.54,165.31 86.91,-267.49 86.91,267.49 -455.07,-330.63 h 281.25 l -227.54,165.32 86.92,-267.49 86.91,267.49 -227.54,-165.32 h 562.5" /><path
             id="path48"
             style="fill:none;stroke:#000000;stroke-width:7.5;stroke-linecap:round;stroke-linejoin:round;stroke-miterlimit:10;stroke-dasharray:none;stroke-opacity:1"
             d="m 4448.75,2820.66 -227.54,165.32 86.91,-267.49 86.92,267.49 -227.54,-165.32 h 281.25 l -455.07,330.63 86.91,-267.49 86.91,267.49 -227.54,-165.31 h 281.25 l -227.53,165.31 173.82,-534.97 86.91,267.48 -227.53,-165.31 h 281.24 l -227.53,165.31 86.91,-267.48 347.64,1069.94 -455.07,-330.63 h 281.25 l -227.53,165.32 86.91,-267.49 86.91,267.49 -227.54,-165.32 h 562.5 l -227.53,165.32 86.91,-267.49 86.91,267.49 -227.54,-165.32 h 281.25 l -455.07,330.63 86.91,-267.49 86.91,267.49 -227.53,-165.31 h 281.25 l -227.54,165.31 173.82,-534.97 86.91,267.48 -227.53,-165.31 h 281.25 l -227.54,165.31 86.91,-267.48" /><path
             id="path50"
             style="fill:none;stroke:#000000;stroke-width:7.5;stroke-linecap:round;stroke-linejoin:round;stroke-miterlimit:10;stroke-dasharray:none;stroke-opacity:1"
             d="m 4341.32,3151.29 173.82,534.97 -227.53,-165.31 h 281.25 l -227.54,165.31 86.91,-267.49 86.91,267.49 L 3605,3025 h 562.5 l -227.54,165.32 86.92,-267.49 86.91,267.49 L 3886.25,3025 h 281.25 l -455.07,330.63 86.91,-267.49 86.91,267.49 -227.54,-165.31 h 281.25 l -227.53,165.31 173.82,-534.97 86.91,267.48 -227.54,-165.31 h 281.26 l -227.54,165.31 86.91,-267.48 173.82,534.97 -227.53,-165.31 h 281.25 l -227.54,165.31 86.91,-267.49 86.91,267.49 L 3605,3025 h 281.25 l -227.54,165.32 86.91,-267.49 86.92,267.49 L 3605,3025 h 2250 l -910.14,661.26 173.82,-534.97 86.91,267.48 -227.54,-165.31" /><path
             id="path52"
             style="fill:none;stroke:#000000;stroke-width:7.5;stroke-linecap:round;stroke-linejoin:round;stroke-miterlimit:10;stroke-dasharray:none;stroke-opacity:1"
             d="m 4978.05,3253.46 h 281.25 l -227.53,165.31 86.91,-267.48 173.82,534.97 -227.54,-165.31 h 281.25 l -227.53,165.31 86.91,-267.49 86.91,267.49 -455.07,-330.63 h 281.25 l -227.54,165.32 86.91,-267.49 86.91,267.49 -227.53,-165.32 h 562.5 l -227.54,165.32 86.91,-267.49 86.91,267.49 -227.53,-165.32 h 281.25 l -455.07,330.63 86.91,-267.49 86.91,267.49 -227.54,-165.31 h 281.25 l -227.53,165.31 347.64,-1069.94 173.82,534.97 -227.53,-165.31 h 281.25 l -227.54,165.31 86.91,-267.49 86.91,267.49 -455.07,-330.63 h 281.25 l -227.54,165.32 86.92,-267.49 86.91,267.49 -227.54,-165.32 h 562.5 l -227.54,165.32" /><path
             id="path54"
             style="fill:none;stroke:#000000;stroke-width:7.5;stroke-linecap:round;stroke-linejoin:round;stroke-miterlimit:10;stroke-dasharray:none;stroke-opacity:1"
             d="m 5346.21,2985.98 86.91,-267.49 86.92,267.49 -227.54,-165.32 h 281.25 l -455.07,330.63 86.91,-267.49 86.91,267.49 -227.54,-165.31 h 281.25 l -227.53,165.31 173.82,-534.97 86.91,267.48 -227.53,-165.31 h 281.24 l -227.53,165.31 86.91,-267.48 347.64,1069.94 -455.07,-330.63 h 281.25 l -227.53,165.32 86.91,-267.49 86.91,267.49 -227.54,-165.32 h 562.5 l -227.53,165.32 86.91,-267.49 86.91,267.49 -227.54,-165.32 h 281.25 l -455.07,330.63 86.91,-267.49 86.91,267.49 -227.53,-165.31 h 281.25 l -227.54,165.31 173.82,-534.97 86.91,267.48 -227.53,-165.31 h 281.25 l -227.54,165.31 86.91,-267.48 173.82,534.97" /><path
             id="path56"
             style="fill:none;stroke:#000000;stroke-width:7.5;stroke-linecap:round;stroke-linejoin:round;stroke-miterlimit:10;stroke-dasharray:none;stroke-opacity:1"
             d="m 5640.14,3686.26 -227.53,-165.31 h 281.25 l -227.54,165.31 86.91,-267.49 86.91,267.49 L 4730,3025 h 562.5 l -227.54,165.32 86.92,-267.49 86.91,267.49 L 5011.25,3025 h 281.25 l -455.07,330.63 86.91,-267.49 86.91,267.49 -227.54,-165.31 h 281.25 l -227.53,165.31 173.82,-534.97 86.91,267.48 -227.54,-165.31 h 281.26 l -227.54,165.31 86.91,-267.48 173.82,534.97 -227.53,-165.31 h 281.25 l -227.54,165.31 86.91,-267.49 86.91,267.49 L 4730,3025 h 281.25 l -227.54,165.32 86.91,-267.49 86.92,267.49 L 4730,3025 h 1125 l -455.07,330.63 86.91,-267.49 86.91,267.49 -227.54,-165.31 h 281.25" /><path
             id="path58"
             style="fill:none;stroke:#000000;stroke-width:7.5;stroke-linecap:round;stroke-linejoin:round;stroke-miterlimit:10;stroke-dasharray:none;stroke-opacity:1"
             d="m 5627.46,3190.32 -227.53,165.31 173.82,-534.97 86.91,267.48 -227.54,-165.31 h 281.26 l -227.54,165.31 86.91,-267.48 173.82,534.97 -227.53,-165.31 h 281.25 l -227.54,165.31 86.91,-267.49 86.91,267.49 L 5292.5,3025 h 281.25 l -227.54,165.32 86.91,-267.49 86.92,267.49 L 5292.5,3025 H 5855 l -227.54,165.32 86.92,-267.49 86.91,267.49 L 5573.75,3025 H 5855 l -3640.58,2645.04 695.29,-2139.88 347.65,1069.93 -455.07,-330.63 h 281.25 l -227.54,165.32 86.91,-267.48 86.91,267.48 -227.53,-165.32 h 562.5 l -227.54,165.32 86.91,-267.48 86.91,267.48 -227.53,-165.32 h 281.25 l -455.08,330.63 86.91,-267.48" /><path
             id="path60"
             style="fill:none;stroke:#000000;stroke-width:7.5;stroke-linecap:round;stroke-linejoin:round;stroke-miterlimit:10;stroke-dasharray:none;stroke-opacity:1"
             d="m 2996.62,4332.61 86.92,267.48 L 2856,4434.78 h 281.25 l -227.54,165.31 173.83,-534.97 86.91,267.49 -227.54,-165.31 h 281.25 l -227.54,165.31 86.92,-267.49 173.82,534.97 -227.54,-165.31 h 281.25 l -227.53,165.31 86.91,-267.48 86.91,267.48 -910.15,-661.25 h 562.5 l -227.53,165.31 86.91,-267.48 86.91,267.48 -227.54,-165.31 h 281.25 l -455.07,330.62 86.91,-267.48 86.91,267.48 -227.53,-165.31 h 281.25 l -227.54,165.31 173.82,-534.96 86.91,267.48 -227.53,-165.31 h 281.25 l -227.54,165.31 86.91,-267.48 173.83,534.96 -227.54,-165.31 H 2856 l -227.54,165.31 86.91,-267.48 86.92,267.48 -455.08,-330.62" /><path
             id="path62"
             style="fill:none;stroke:#000000;stroke-width:7.5;stroke-linecap:round;stroke-linejoin:round;stroke-miterlimit:10;stroke-dasharray:none;stroke-opacity:1"
             d="m 2347.21,3938.84 h 281.25 l -227.53,165.31 86.91,-267.48 86.91,267.48 -227.54,-165.31 h 1125 l -455.07,330.62 86.91,-267.48 86.91,267.48 -227.53,-165.31 h 281.25 l -227.54,165.31 173.82,-534.96 86.91,267.48 -227.53,-165.31 h 281.25 l -227.54,165.31 86.91,-267.48 173.83,534.96 -227.54,-165.31 h 281.25 l -227.54,165.31 86.91,-267.48 86.92,267.48 -455.08,-330.62 h 281.25 l -227.53,165.31 86.91,-267.48 86.91,267.48 -227.54,-165.31 h 562.5 l -227.53,165.31 86.91,-267.48 86.91,267.48 -227.54,-165.31 h 281.25 l -910.14,661.25 173.82,-534.97 86.91,267.49 -227.53,-165.31 h 281.25 l -227.54,165.31" /><path
             id="path64"
             style="fill:none;stroke:#000000;stroke-width:7.5;stroke-linecap:round;stroke-linejoin:round;stroke-miterlimit:10;stroke-dasharray:none;stroke-opacity:1"
             d="m 2648.98,4332.61 86.91,-267.49 173.82,534.97 -227.53,-165.31 h 281.25 l -227.54,165.31 86.91,-267.48 86.91,267.48 -455.07,-330.63 h 281.25 l -227.53,165.32 86.91,-267.48 86.91,267.48 -227.54,-165.32 h 562.5 l -227.53,165.32 86.91,-267.48 86.91,267.48 -227.54,-165.32 h 281.25 l -455.07,330.63 86.91,-267.48 86.91,267.48 -227.53,-165.31 h 281.25 l -227.54,165.31 347.64,-1069.93 173.83,534.96 L 2856,3899.81 h 281.25 l -227.54,165.31 86.91,-267.48 86.92,267.48 -455.08,-330.62 h 281.25 l -227.53,165.31 86.91,-267.48 86.91,267.48 -227.54,-165.31 h 562.5 l -227.53,165.31 86.91,-267.48 86.91,267.48" /><path
             id="path66"
             style="fill:none;stroke:#000000;stroke-width:7.5;stroke-linecap:round;stroke-linejoin:round;stroke-miterlimit:10;stroke-dasharray:none;stroke-opacity:1"
             d="M 3137.25,3899.81 2909.71,3734.5 h 281.25 l -455.07,330.62 86.91,-267.48 86.91,267.48 -227.53,-165.31 h 281.25 l -227.54,165.31 173.82,-534.96 86.91,267.48 -227.53,-165.31 h 281.25 l -227.54,165.31 86.91,-267.48 695.29,2139.88 -910.14,-661.26 h 562.5 l -227.54,165.31 86.91,-267.48 86.91,267.48 -227.53,-165.31 h 281.25 l -455.07,330.63 86.91,-267.49 86.91,267.49 -227.54,-165.32 h 281.25 l -227.53,165.32 173.82,-534.98 86.91,267.49 -227.54,-165.31 h 281.25 l -227.53,165.31 86.91,-267.49 173.82,534.98 -227.54,-165.32 h 281.25 l -227.53,165.32 86.91,-267.49 86.91,267.49 -455.07,-330.63 h 281.25" /><path
             id="path68"
             style="fill:none;stroke:#000000;stroke-width:7.5;stroke-linecap:round;stroke-linejoin:round;stroke-miterlimit:10;stroke-dasharray:none;stroke-opacity:1"
             d="m 2976.11,5008.78 -227.54,165.31 86.91,-267.48 86.91,267.48 -227.53,-165.31 h 1125 l -455.07,330.63 86.91,-267.49 86.91,267.49 -227.54,-165.32 h 281.25 l -227.53,165.32 173.82,-534.98 86.91,267.49 -227.54,-165.31 h 281.25 l -227.53,165.31 86.91,-267.49 173.82,534.98 -227.54,-165.32 h 281.25 l -227.53,165.32 86.91,-267.49 86.91,267.49 -455.07,-330.63 h 281.25 l -227.54,165.31 86.91,-267.48 86.91,267.48 -227.53,-165.31 h 562.5 l -227.54,165.31 86.91,-267.48 86.91,267.48 -227.53,-165.31 h 281.25 l -910.15,661.26 173.83,-534.97 86.91,267.48 -227.54,-165.32 h 281.25 l -227.54,165.32 86.92,-267.48" /><path
             id="path70"
             style="fill:none;stroke:#000000;stroke-width:7.5;stroke-linecap:round;stroke-linejoin:round;stroke-miterlimit:10;stroke-dasharray:none;stroke-opacity:1"
             d="m 3083.54,5135.07 173.82,534.97 -227.54,-165.32 h 281.25 l -227.53,165.32 86.91,-267.49 86.91,267.49 -455.07,-330.63 h 281.25 l -227.54,165.31 86.91,-267.49 86.91,267.49 -227.53,-165.31 h 562.5 l -227.54,165.31 86.91,-267.49 86.91,267.49 -227.53,-165.31 h 281.25 l -455.08,330.63 86.91,-267.49 86.92,267.49 L 2856,5504.72 h 281.25 l -227.54,165.32 347.65,-1069.95 173.82,534.98 -227.54,-165.32 h 281.25 l -227.53,165.32 86.91,-267.49 86.91,267.49 -455.07,-330.64 h 281.25 l -227.54,165.32 86.91,-267.48 86.91,267.48 -227.53,-165.32 h 562.5 l -227.54,165.32 86.91,-267.48 86.91,267.48 -227.53,-165.32" /><path
             id="path72"
             style="fill:none;stroke:#000000;stroke-width:7.5;stroke-linecap:round;stroke-linejoin:round;stroke-miterlimit:10;stroke-dasharray:none;stroke-opacity:1"
             d="m 3257.36,4804.43 h 281.25 l -455.07,330.64 86.91,-267.49 86.91,267.49 -227.54,-165.32 h 281.25 l -227.53,165.32 173.82,-534.98 86.91,267.49 -227.54,-165.31 h 281.25 l -227.53,165.31 86.91,-267.49 347.64,1069.95 -455.07,-330.63 h 281.25 l -227.54,165.31 86.91,-267.49 86.91,267.49 -227.53,-165.31 h 562.5 l -227.54,165.31 86.91,-267.49 86.91,267.49 -227.53,-165.31 h 281.25 l -455.07,330.63 86.91,-267.49 86.91,267.49 -227.54,-165.32 h 281.25 l -227.53,165.32 173.82,-534.97 86.91,267.48 -227.54,-165.32 h 281.25 l -227.53,165.32 86.91,-267.48 173.82,534.97 -227.54,-165.32 h 281.25 l -227.53,165.32" /><path
             id="path74"
             style="fill:none;stroke:#000000;stroke-width:7.5;stroke-linecap:round;stroke-linejoin:round;stroke-miterlimit:10;stroke-dasharray:none;stroke-opacity:1"
             d="m 3431.18,5670.04 86.91,-267.49 86.91,267.49 -1820.29,-1322.52 h 1125 l -455.07,330.62 86.91,-267.48 86.91,267.48 -227.53,-165.31 h 281.25 l -227.54,165.31 173.82,-534.96 86.91,267.48 -227.53,-165.31 h 281.25 l -227.54,165.31 86.91,-267.48 173.83,534.96 -227.54,-165.31 H 2856 l -227.54,165.31 86.91,-267.48 86.92,267.48 -455.08,-330.62 h 281.25 l -227.53,165.31 86.91,-267.48 86.91,267.48 -227.54,-165.31 h 562.5 l -227.53,165.31 86.91,-267.48 86.91,267.48 -227.54,-165.31 h 281.25 l -910.14,661.26 173.82,-534.98 86.91,267.49 -227.53,-165.31 h 281.25 l -227.54,165.31 86.91,-267.49 173.82,534.98" /><path
             id="path76"
             style="fill:none;stroke:#000000;stroke-width:7.5;stroke-linecap:round;stroke-linejoin:round;stroke-miterlimit:10;stroke-dasharray:none;stroke-opacity:1"
             d="m 2347.21,5008.78 -227.53,-165.32 h 281.25 l -227.54,165.32 86.91,-267.49 86.91,267.49 -455.07,-330.64 h 281.25 l -227.53,165.32 86.91,-267.48 86.91,267.48 -227.54,-165.32 h 562.5 l -227.53,165.32 86.91,-267.48 86.91,267.48 -227.54,-165.32 h 281.25 l -455.07,330.64 86.91,-267.49 86.91,267.49 -227.53,-165.32 h 281.25 l -227.54,165.32 347.64,-1069.94 173.83,534.96 -227.54,-165.31 h 281.25 l -227.54,165.31 86.91,-267.48 86.92,267.48 -455.08,-330.62 h 281.25 l -227.53,165.31 86.91,-267.48 86.91,267.48 -227.54,-165.31 h 562.5 l -227.53,165.31 86.91,-267.48 86.91,267.48 -227.54,-165.31 h 281.25" /><path
             id="path78"
             style="fill:none;stroke:#000000;stroke-width:7.5;stroke-linecap:round;stroke-linejoin:round;stroke-miterlimit:10;stroke-dasharray:none;stroke-opacity:1"
             d="m 2628.46,4143.18 -455.07,330.62 86.91,-267.48 86.91,267.48 -227.53,-165.31 h 281.25 l -227.54,165.31 173.82,-534.96 86.91,267.48 -227.53,-165.31 h 281.25 l -227.54,165.31 86.91,-267.48 347.65,1069.94 -455.07,-330.64 h 281.25 l -227.54,165.32 86.91,-267.48 86.91,267.48 -227.53,-165.32 h 562.5 l -227.54,165.32 86.91,-267.48 86.91,267.48 -227.53,-165.32 h 281.25 l -455.08,330.64 86.91,-267.49 86.92,267.49 -227.54,-165.32 h 281.25 l -227.54,165.32 173.83,-534.98 86.91,267.49 -227.54,-165.31 h 281.25 l -227.54,165.31 86.92,-267.49 173.82,534.98 -227.54,-165.32 h 281.25 l -227.53,165.32 86.91,-267.49" /><path
             id="path80"
             style="fill:none;stroke:#000000;stroke-width:7.5;stroke-linecap:round;stroke-linejoin:round;stroke-miterlimit:10;stroke-dasharray:none;stroke-opacity:1"
             d="m 2607.95,4741.29 86.91,267.49 -910.15,-661.26 h 562.5 l -227.53,165.31 86.91,-267.48 86.91,267.48 -227.54,-165.31 h 281.25 l -455.07,330.62 86.91,-267.48 86.91,267.48 -227.53,-165.31 h 281.25 l -227.54,165.31 173.82,-534.96 86.91,267.48 -227.53,-165.31 h 281.25 l -227.54,165.31 86.91,-267.48 173.83,534.96 -227.54,-165.31 h 281.25 l -227.54,165.31 86.91,-267.48 86.92,267.48 -455.08,-330.62 h 281.25 l -227.53,165.31 86.91,-267.48 86.91,267.48 -227.54,-165.31 h 2250 l -910.14,661.26 173.82,-534.98 86.91,267.49 -227.53,-165.31 h 281.25 l -227.54,165.31 86.91,-267.49 173.82,534.98 -227.53,-165.32" /><path
             id="path82"
             style="fill:none;stroke:#000000;stroke-width:7.5;stroke-linecap:round;stroke-linejoin:round;stroke-miterlimit:10;stroke-dasharray:none;stroke-opacity:1"
             d="m 3244.68,4843.46 h 281.25 l -227.54,165.32 86.91,-267.49 86.91,267.49 -455.07,-330.64 h 281.25 l -227.53,165.32 86.91,-267.48 86.91,267.48 -227.54,-165.32 h 562.5 l -227.53,165.32 86.91,-267.48 86.91,267.48 -227.54,-165.32 h 281.25 l -455.07,330.64 86.91,-267.49 86.91,267.49 -227.53,-165.32 h 281.25 l -227.54,165.32 347.64,-1069.94 173.83,534.96 -227.54,-165.31 h 281.25 l -227.54,165.31 86.91,-267.48 86.92,267.48 -455.08,-330.62 h 281.25 l -227.53,165.31 86.91,-267.48 86.91,267.48 -227.54,-165.31 h 562.5 l -227.53,165.31 86.91,-267.48 86.91,267.48 -227.54,-165.31 h 281.25 l -455.07,330.62" /><path
             id="path84"
             style="fill:none;stroke:#000000;stroke-width:7.5;stroke-linecap:round;stroke-linejoin:round;stroke-miterlimit:10;stroke-dasharray:none;stroke-opacity:1"
             d="m 3298.39,4473.8 86.91,-267.48 86.91,267.48 -227.53,-165.31 h 281.25 l -227.54,165.31 173.82,-534.96 86.91,267.48 -227.53,-165.31 h 281.25 l -227.54,165.31 86.91,-267.48 347.65,1069.94 -455.07,-330.64 h 281.25 l -227.54,165.32 86.91,-267.48 86.91,267.48 -227.53,-165.32 h 562.5 l -227.54,165.32 86.91,-267.48 86.91,267.48 -227.53,-165.32 h 281.25 l -455.08,330.64 86.91,-267.49 86.92,267.49 -227.54,-165.32 h 281.25 l -227.54,165.32 173.83,-534.98 86.91,267.49 -227.54,-165.31 h 281.25 l -227.54,165.31 86.92,-267.49 173.82,534.98 -227.54,-165.32 h 281.25 l -227.53,165.32 86.91,-267.49 86.91,267.49" /><path
             id="path86"
             style="fill:none;stroke:#000000;stroke-width:7.5;stroke-linecap:round;stroke-linejoin:round;stroke-miterlimit:10;stroke-dasharray:none;stroke-opacity:1"
             d="m 3819.86,5008.78 -910.15,-661.26 h 562.5 l -227.53,165.31 86.91,-267.48 86.91,267.48 -227.54,-165.31 h 281.25 l -455.07,330.62 86.91,-267.48 86.91,267.48 -227.53,-165.31 h 281.25 l -227.54,165.31 173.82,-534.96 86.91,267.48 -227.53,-165.31 h 281.25 l -227.54,165.31 86.91,-267.48 173.83,534.96 -227.54,-165.31 h 281.25 l -227.54,165.31 86.91,-267.48 86.92,267.48 -455.08,-330.62 h 281.25 l -227.53,165.31 86.91,-267.48 86.91,267.48 -227.54,-165.31 h 1125 l -455.07,330.62 86.91,-267.48 86.91,267.48 -227.53,-165.31 h 281.25 l -227.54,165.31 173.82,-534.96 86.91,267.48 -227.53,-165.31 h 281.25" /><path
             id="path88"
             style="fill:none;stroke:#000000;stroke-width:7.5;stroke-linecap:round;stroke-linejoin:round;stroke-miterlimit:10;stroke-dasharray:none;stroke-opacity:1"
             d="m 3894.09,4245.35 -227.54,165.31 86.91,-267.48 173.83,534.96 -227.54,-165.31 H 3981 l -227.54,165.31 86.91,-267.48 86.92,267.48 -455.08,-330.62 h 281.25 l -227.53,165.31 86.91,-267.48 86.91,267.48 -227.54,-165.31 h 562.5 l -227.53,165.31 86.91,-267.48 86.91,267.48 -227.54,-165.31 h 281.25 l -1820.29,1322.52 347.65,-1069.95 173.82,534.98 -227.53,-165.32 h 281.25 l -227.54,165.32 86.91,-267.49 86.91,267.49 -455.07,-330.64 h 281.25 l -227.54,165.32 86.91,-267.48 86.92,267.48 -227.54,-165.32 h 562.5 l -227.54,165.32 86.91,-267.48 86.92,267.48 -227.54,-165.32 h 281.25 l -455.07,330.64 86.91,-267.49" /><path
             id="path90"
             style="fill:none;stroke:#000000;stroke-width:7.5;stroke-linecap:round;stroke-linejoin:round;stroke-miterlimit:10;stroke-dasharray:none;stroke-opacity:1"
             d="m 2475.16,4867.58 86.91,267.49 -227.54,-165.32 h 281.25 l -227.53,165.32 173.82,-534.98 86.91,267.49 -227.54,-165.31 h 281.25 l -227.53,165.31 86.91,-267.49 347.64,1069.95 -455.07,-330.63 h 281.25 l -227.53,165.31 86.91,-267.49 86.91,267.49 -227.54,-165.31 h 562.5 l -227.53,165.31 86.91,-267.49 86.91,267.49 -227.54,-165.31 h 281.25 l -455.07,330.63 86.91,-267.49 86.91,267.49 -227.53,-165.32 h 281.25 l -227.54,165.32 173.82,-534.97 86.91,267.48 -227.53,-165.32 h 281.25 l -227.54,165.32 86.91,-267.48 173.82,534.97 -227.53,-165.32 h 281.25 l -227.54,165.32 86.91,-267.49 86.91,267.49 -910.14,-661.26" /><path
             id="path92"
             style="fill:none;stroke:#000000;stroke-width:7.5;stroke-linecap:round;stroke-linejoin:round;stroke-miterlimit:10;stroke-dasharray:none;stroke-opacity:1"
             d="m 1999.57,5008.78 h 562.5 l -227.54,165.31 86.91,-267.48 86.92,267.48 -227.54,-165.31 h 281.25 l -455.07,330.63 86.91,-267.49 86.91,267.49 -227.54,-165.32 h 281.25 l -227.53,165.32 173.82,-534.98 86.91,267.49 -227.54,-165.31 h 281.25 l -227.53,165.31 86.91,-267.49 173.82,534.98 -227.53,-165.32 h 281.25 l -227.54,165.32 86.91,-267.49 86.91,267.49 -455.07,-330.63 h 281.25 l -227.54,165.31 86.91,-267.48 86.92,267.48 -227.54,-165.31 h 1125 l -455.07,330.63 86.91,-267.49 86.91,267.49 -227.54,-165.32 h 281.25 l -227.53,165.32 173.82,-534.98 86.91,267.49 -227.54,-165.31 h 281.25 l -227.53,165.31" /><path
             id="path94"
             style="fill:none;stroke:#000000;stroke-width:7.5;stroke-linecap:round;stroke-linejoin:round;stroke-miterlimit:10;stroke-dasharray:none;stroke-opacity:1"
             d="m 2756.41,5071.92 86.91,-267.49 173.82,534.98 -227.53,-165.32 h 281.25 l -227.54,165.32 86.91,-267.49 86.91,267.49 -455.07,-330.63 h 281.25 l -227.54,165.31 86.91,-267.48 86.92,267.48 -227.54,-165.31 h 562.5 l -227.54,165.31 86.91,-267.48 86.92,267.48 -227.54,-165.31 h 281.25 l -910.15,661.26 173.83,-534.97 86.91,267.48 -227.54,-165.32 h 281.25 l -227.53,165.32 86.91,-267.48 173.82,534.97 -227.54,-165.32 h 281.25 l -227.53,165.32 86.91,-267.49 86.91,267.49 L 2107,5339.41 h 281.25 l -227.54,165.31 86.91,-267.49 86.91,267.49 L 2107,5339.41 h 562.5 l -227.54,165.31 86.91,-267.49 86.91,267.49" /><path
             id="path96"
             style="fill:none;stroke:#000000;stroke-width:7.5;stroke-linecap:round;stroke-linejoin:round;stroke-miterlimit:10;stroke-dasharray:none;stroke-opacity:1"
             d="m 2615.78,5504.72 -227.53,-165.31 h 281.25 l -455.08,330.63 86.92,-267.49 86.91,267.49 -227.54,-165.32 h 281.25 L 2214.42,5670.04 3605,1390.28 4300.29,3530.16 3390.14,2868.9 h 562.5 l -227.53,165.31 86.91,-267.48 86.91,267.48 -227.54,-165.31 h 281.25 l -455.07,330.63 86.91,-267.49 86.91,267.49 -227.53,-165.32 h 281.25 l -227.54,165.32 173.82,-534.97 86.91,267.48 -227.53,-165.31 h 281.25 l -227.54,165.31 86.91,-267.48 173.82,534.97 -227.53,-165.32 h 281.25 l -227.54,165.32 86.91,-267.49 86.91,267.49 -455.07,-330.63 h 281.25 l -227.53,165.31 86.91,-267.48 86.91,267.48 -227.54,-165.31 h 1125" /><path
             id="path98"
             style="fill:none;stroke:#000000;stroke-width:7.5;stroke-linecap:round;stroke-linejoin:round;stroke-miterlimit:10;stroke-dasharray:none;stroke-opacity:1"
             d="m 4515.14,2868.9 -455.07,330.63 86.91,-267.49 86.91,267.49 -227.53,-165.32 h 281.25 l -227.54,165.32 173.82,-534.97 86.91,267.48 -227.53,-165.31 h 281.25 l -227.54,165.31 86.91,-267.48 173.82,534.97 -227.53,-165.32 h 281.25 l -227.54,165.32 86.91,-267.49 86.91,267.49 -455.07,-330.63 h 281.25 l -227.53,165.31 86.91,-267.48 86.91,267.48 -227.54,-165.31 h 562.5 l -227.53,165.31 86.91,-267.48 86.91,267.48 -227.54,-165.31 h 281.25 l -910.14,661.26 173.82,-534.97 86.91,267.48 -227.53,-165.31 h 281.25 l -227.54,165.31 86.91,-267.48 173.82,534.97 -227.53,-165.32 h 281.25 l -227.54,165.32 86.91,-267.49" /><path
             id="path100"
             style="fill:none;stroke:#000000;stroke-width:7.5;stroke-linecap:round;stroke-linejoin:round;stroke-miterlimit:10;stroke-dasharray:none;stroke-opacity:1"
             d="m 3865.73,3262.67 86.91,267.49 -455.07,-330.63 h 281.25 l -227.53,165.31 86.91,-267.48 86.91,267.48 -227.54,-165.31 h 562.5 l -227.53,165.31 86.91,-267.48 86.91,267.48 -227.54,-165.31 h 281.25 l -455.07,330.63 86.91,-267.49 86.91,267.49 -227.53,-165.32 h 281.25 l -227.54,165.32 347.64,-1069.94 173.82,534.97 -227.53,-165.32 h 281.25 l -227.54,165.32 86.91,-267.49 86.91,267.49 -455.07,-330.63 h 281.25 l -227.53,165.31 86.91,-267.48 86.91,267.48 -227.54,-165.31 h 562.5 l -227.53,165.31 86.91,-267.48 86.91,267.48 -227.54,-165.31 h 281.25 l -455.07,330.63 86.91,-267.49 86.91,267.49 -227.53,-165.32" /><path
             id="path102"
             style="fill:none;stroke:#000000;stroke-width:7.5;stroke-linecap:round;stroke-linejoin:round;stroke-miterlimit:10;stroke-dasharray:none;stroke-opacity:1"
             d="m 3725.11,2829.87 h 281.25 l -227.54,165.32 173.82,-534.97 86.91,267.48 -227.53,-165.31 h 281.25 l -227.54,165.31 86.91,-267.48 347.65,1069.94 -455.08,-330.63 h 281.25 l -227.53,165.31 86.91,-267.48 86.91,267.48 -227.54,-165.31 h 562.5 l -227.53,165.31 86.91,-267.48 86.91,267.48 -227.54,-165.31 h 281.25 l -455.07,330.63 86.91,-267.49 86.91,267.49 -227.53,-165.32 h 281.25 l -227.54,165.32 173.82,-534.97 86.92,267.48 -227.54,-165.31 h 281.25 l -227.54,165.31 86.91,-267.48 173.83,534.97 -227.54,-165.32 H 4354 l -227.54,165.32 86.92,-267.49 86.91,267.49 L 2480,2207.64 h 1125 l -455.07,330.63" /><path
             id="path104"
             style="fill:none;stroke:#000000;stroke-width:7.5;stroke-linecap:round;stroke-linejoin:round;stroke-miterlimit:10;stroke-dasharray:none;stroke-opacity:1"
             d="m 3149.93,2538.27 86.91,-267.48 86.91,267.48 -227.54,-165.32 h 281.25 l -227.53,165.32 173.82,-534.97 86.91,267.49 -227.54,-165.32 h 281.26 l -227.54,165.32 86.91,-267.49 173.82,534.97 -227.53,-165.32 h 281.25 l -227.54,165.32 86.91,-267.48 86.91,267.48 -455.07,-330.63 h 281.25 l -227.54,165.31 86.91,-267.48 86.92,267.48 -227.54,-165.31 H 3605 l -227.54,165.31 86.92,-267.48 86.91,267.48 -227.54,-165.31 H 3605 l -910.14,661.26 173.82,-534.97 86.91,267.48 -227.54,-165.31 h 281.25 l -227.53,165.31 86.91,-267.48 173.82,534.97 -227.54,-165.32 h 281.25 l -227.53,165.32 86.91,-267.49 86.91,267.49" /><path
             id="path106"
             style="fill:none;stroke:#000000;stroke-width:7.5;stroke-linecap:round;stroke-linejoin:round;stroke-miterlimit:10;stroke-dasharray:none;stroke-opacity:1"
             d="m 3042.5,2868.9 -455.07,-330.63 h 281.25 l -227.54,165.31 86.91,-267.48 86.91,267.48 -227.53,-165.31 h 562.5 l -227.54,165.31 86.91,-267.48 86.91,267.48 -227.53,-165.31 h 281.25 l -455.07,330.63 86.91,-267.49 86.91,267.49 -227.54,-165.32 h 281.25 l -227.53,165.32 347.64,-1069.94 173.82,534.97 -227.53,-165.32 h 281.25 l -227.54,165.32 86.91,-267.48 86.91,267.48 -455.07,-330.63 h 281.25 l -227.54,165.31 86.92,-267.48 86.91,267.48 -227.54,-165.31 h 562.5 l -227.54,165.31 86.91,-267.48 86.92,267.48 -227.54,-165.31 h 281.25 l -455.07,330.63 86.91,-267.48 86.91,267.48 -227.54,-165.32 h 281.25" /><path
             id="path108"
             style="fill:none;stroke:#000000;stroke-width:7.5;stroke-linecap:round;stroke-linejoin:round;stroke-miterlimit:10;stroke-dasharray:none;stroke-opacity:1"
             d="m 3096.21,2168.61 -227.53,165.32 173.82,-534.97 86.91,267.49 -227.53,-165.32 h 281.24 l -227.53,165.32 86.91,-267.49 347.64,1069.94 -455.07,-330.63 h 281.25 l -227.53,165.31 86.91,-267.48 86.91,267.48 -227.54,-165.31 h 562.5 l -227.53,165.31 86.91,-267.48 86.91,267.48 -227.54,-165.31 h 281.25 l -455.07,330.63 86.91,-267.49 86.91,267.49 -227.53,-165.32 h 281.25 l -227.54,165.32 173.82,-534.97 86.91,267.48 -227.53,-165.31 h 281.25 l -227.54,165.31 86.91,-267.48 173.82,534.97 -227.53,-165.32 h 281.25 l -227.54,165.32 86.91,-267.49 86.91,267.49 L 2480,2207.64 h 562.5 l -227.54,165.31 86.92,-267.48" /><path
             id="path110"
             style="fill:none;stroke:#000000;stroke-width:7.5;stroke-linecap:round;stroke-linejoin:round;stroke-miterlimit:10;stroke-dasharray:none;stroke-opacity:1"
             d="m 2901.88,2105.47 86.91,267.48 -227.54,-165.31 h 281.25 l -455.07,330.63 86.91,-267.48 86.91,267.48 -227.54,-165.32 h 281.25 l -227.53,165.32 173.82,-534.97 86.91,267.49 -227.54,-165.32 h 281.26 l -227.54,165.32 86.91,-267.49 173.82,534.97 -227.53,-165.32 h 281.25 l -227.54,165.32 86.91,-267.48 86.91,267.48 L 2480,2207.64 h 281.25 l -227.54,165.31 86.91,-267.48 86.92,267.48 L 2480,2207.64 h 2250 l -910.14,661.26 173.82,-534.97 86.91,267.48 -227.54,-165.31 h 281.25 l -227.53,165.31 86.91,-267.48 173.82,534.97 -227.54,-165.32 h 281.25 l -227.53,165.32 86.91,-267.49 86.91,267.49 -455.07,-330.63" /><path
             id="path112"
             style="fill:none;stroke:#000000;stroke-width:7.5;stroke-linecap:round;stroke-linejoin:round;stroke-miterlimit:10;stroke-dasharray:none;stroke-opacity:1"
             d="m 3712.43,2538.27 h 281.25 l -227.54,165.31 86.91,-267.48 86.91,267.48 -227.53,-165.31 h 562.5 l -227.54,165.31 86.91,-267.48 86.91,267.48 -227.53,-165.31 h 281.25 l -455.07,330.63 86.91,-267.49 86.91,267.49 -227.54,-165.32 h 281.25 l -227.53,165.32 347.64,-1069.94 173.82,534.97 -227.53,-165.32 h 281.25 l -227.54,165.32 86.91,-267.48 86.91,267.48 -455.07,-330.63 h 281.25 l -227.54,165.31 86.92,-267.48 86.91,267.48 -227.54,-165.31 h 562.5 l -227.54,165.31 86.91,-267.48 86.92,267.48 -227.54,-165.31 h 281.25 l -455.07,330.63 86.91,-267.48 86.91,267.48 -227.54,-165.32 h 281.25 l -227.53,165.32" /><path
             id="path114"
             style="fill:none;stroke:#000000;stroke-width:7.5;stroke-linecap:round;stroke-linejoin:round;stroke-miterlimit:10;stroke-dasharray:none;stroke-opacity:1"
             d="m 3993.68,2333.93 173.82,-534.97 86.91,267.49 -227.53,-165.32 h 281.24 l -227.53,165.32 86.91,-267.49 347.64,1069.94 -455.07,-330.63 h 281.25 l -227.53,165.31 86.91,-267.48 86.91,267.48 -227.54,-165.31 h 562.5 l -227.53,165.31 86.91,-267.48 86.91,267.48 -227.54,-165.31 h 281.25 l -455.07,330.63 86.91,-267.49 86.91,267.49 -227.53,-165.32 h 281.25 l -227.54,165.32 173.82,-534.97 86.91,267.48 -227.53,-165.31 h 281.25 l -227.54,165.31 86.91,-267.48 173.82,534.97 -227.53,-165.32 h 281.25 l -227.54,165.32 86.91,-267.49 86.91,267.49 L 3605,2207.64 h 562.5 l -227.54,165.31 86.92,-267.48 86.91,267.48" /><path
             id="path116"
             style="fill:none;stroke:#000000;stroke-width:7.5;stroke-linecap:round;stroke-linejoin:round;stroke-miterlimit:10;stroke-dasharray:none;stroke-opacity:1"
             d="m 4113.79,2372.95 -227.54,-165.31 h 281.25 l -455.07,330.63 86.91,-267.48 86.91,267.48 -227.54,-165.32 h 281.25 l -227.53,165.32 173.82,-534.97 86.91,267.49 -227.54,-165.32 h 281.26 l -227.54,165.32 86.91,-267.49 173.82,534.97 -227.53,-165.32 h 281.25 l -227.54,165.32 86.91,-267.48 86.91,267.48 L 3605,2207.64 h 281.25 l -227.54,165.31 86.91,-267.48 86.92,267.48 L 3605,2207.64 h 1125 l -455.07,330.63 86.91,-267.48 86.91,267.48 -227.54,-165.32 h 281.25 l -227.53,165.32 173.82,-534.97 86.91,267.49 -227.54,-165.32 h 281.26 l -227.54,165.32 86.91,-267.49 173.82,534.97 -227.53,-165.32 h 281.25" /><path
             id="path118"
             style="fill:none;stroke:#000000;stroke-width:7.5;stroke-linecap:round;stroke-linejoin:round;stroke-miterlimit:10;stroke-dasharray:none;stroke-opacity:1"
             d="m 4676.29,2372.95 -227.54,165.32 86.91,-267.48 86.91,267.48 -455.07,-330.63 h 281.25 l -227.54,165.31 86.91,-267.48 86.92,267.48 -227.54,-165.31 H 4730 l -227.54,165.31 86.92,-267.48 86.91,267.48 -227.54,-165.31 H 4730 l -1820.29,1322.52 347.65,-1069.94 173.82,534.97 -227.54,-165.32 h 281.25 l -227.53,165.32 86.91,-267.49 86.91,267.49 -455.07,-330.63 h 281.25 l -227.54,165.31 86.91,-267.48 86.91,267.48 -227.53,-165.31 h 562.5 l -227.54,165.31 86.91,-267.48 86.91,267.48 -227.53,-165.31 h 281.25 l -455.07,330.63 86.91,-267.49 86.91,267.49 -227.54,-165.32 h 281.25 l -227.53,165.32 173.82,-534.97" /><path
             id="path120"
             style="fill:none;stroke:#000000;stroke-width:7.5;stroke-linecap:round;stroke-linejoin:round;stroke-miterlimit:10;stroke-dasharray:none;stroke-opacity:1"
             d="m 3257.36,2460.22 86.91,267.48 -227.54,-165.31 h 281.25 l -227.53,165.31 86.91,-267.48 347.64,1069.94 -455.07,-330.63 h 281.25 l -227.54,165.31 86.91,-267.48 86.91,267.48 -227.53,-165.31 h 562.5 l -227.54,165.31 86.91,-267.48 86.91,267.48 -227.53,-165.31 h 281.25 l -455.07,330.63 86.91,-267.49 86.91,267.49 -227.54,-165.32 h 281.25 l -227.53,165.32 173.82,-534.97 86.91,267.48 -227.54,-165.31 h 281.25 l -227.53,165.31 86.91,-267.48 173.82,534.97 -227.54,-165.32 h 281.25 l -227.53,165.32 86.91,-267.49 86.91,267.49 -910.14,-661.26 h 562.5 l -227.54,165.31 86.91,-267.48 86.91,267.48 -227.53,-165.31" /><path
             id="path122"
             style="fill:none;stroke:#000000;stroke-width:7.5;stroke-linecap:round;stroke-linejoin:round;stroke-miterlimit:10;stroke-dasharray:none;stroke-opacity:1"
             d="m 2976.11,2868.9 h 281.25 l -455.07,330.63 86.91,-267.49 86.91,267.49 -227.54,-165.32 h 281.25 l -227.53,165.32 173.82,-534.97 86.91,267.48 -227.54,-165.31 h 281.25 l -227.53,165.31 86.91,-267.48 173.82,534.97 -227.54,-165.32 h 281.25 l -227.53,165.32 86.91,-267.49 86.91,267.49 -455.07,-330.63 h 281.25 l -227.54,165.31 86.91,-267.48 86.91,267.48 -227.53,-165.31 h 1125 l -455.07,330.63 86.91,-267.49 86.91,267.49 -227.54,-165.32 h 281.25 l -227.53,165.32 173.82,-534.97 86.91,267.48 -227.54,-165.31 h 281.25 l -227.53,165.31 86.91,-267.48 173.82,534.97 -227.54,-165.32 h 281.25 l -227.53,165.32" /><path
             id="path124"
             style="fill:none;stroke:#000000;stroke-width:7.5;stroke-linecap:round;stroke-linejoin:round;stroke-miterlimit:10;stroke-dasharray:none;stroke-opacity:1"
             d="m 3538.61,3199.53 86.91,-267.49 86.91,267.49 -455.07,-330.63 h 281.25 l -227.54,165.31 86.91,-267.48 86.91,267.48 -227.53,-165.31 h 562.5 l -227.54,165.31 86.91,-267.48 86.91,267.48 -227.53,-165.31 h 281.25 l -910.15,661.26 173.83,-534.97 86.91,267.48 -227.54,-165.31 h 281.25 l -227.54,165.31 86.92,-267.48 173.82,534.97 -227.54,-165.32 h 281.25 l -227.53,165.32 86.91,-267.49 86.91,267.49 -455.07,-330.63 h 281.25 l -227.54,165.31 86.91,-267.48 86.91,267.48 -227.53,-165.31 h 562.5 l -227.54,165.31 86.91,-267.48 86.91,267.48 -227.53,-165.31 h 281.25 l -455.08,330.63 86.91,-267.49 86.92,267.49" /><path
             id="path126"
             style="fill:none;stroke:#000000;stroke-width:7.5;stroke-linecap:round;stroke-linejoin:round;stroke-miterlimit:10;stroke-dasharray:none;stroke-opacity:1"
             d="M 3083.54,3530.16 2856,3364.84 h 281.25 L 2909.71,3530.16 3605,1390.28 3952.64,2460.22 3497.57,2129.59 h 281.25 l -227.53,165.31 86.91,-267.48 86.91,267.48 -227.54,-165.31 h 562.5 l -227.53,165.31 86.91,-267.48 86.91,267.48 -227.54,-165.31 h 281.25 l -455.07,330.63 86.91,-267.49 86.91,267.49 -227.53,-165.32 h 281.25 l -227.54,165.32 173.82,-534.97 86.91,267.48 -227.53,-165.31 h 281.25 l -227.54,165.31 86.91,-267.48 173.82,534.97 -227.53,-165.32 h 281.25 l -227.54,165.32 86.91,-267.49 86.91,267.49 -910.14,-661.26 H 3605 l -227.54,165.31 86.92,-267.48 86.91,267.48 -227.54,-165.31 H 3605" /><path
             id="path128"
             style="fill:none;stroke:#000000;stroke-width:7.5;stroke-linecap:round;stroke-linejoin:round;stroke-miterlimit:10;stroke-dasharray:none;stroke-opacity:1"
             d="m 3605,1798.96 -455.07,330.63 86.91,-267.48 86.91,267.48 -227.54,-165.32 h 281.25 l -227.53,165.32 173.82,-534.97 86.91,267.49 -227.54,-165.32 h 281.26 l -227.54,165.32 86.91,-267.49 173.82,534.97 -227.53,-165.32 h 281.25 l -227.54,165.32 86.91,-267.48 86.91,267.48 -455.07,-330.63 h 281.25 l -227.54,165.31 86.91,-267.48 86.92,267.48 -227.54,-165.31 h 1125 l -455.07,330.63 86.91,-267.48 86.91,267.48 -227.54,-165.32 h 281.25 l -227.53,165.32 173.82,-534.97 86.91,267.49 -227.54,-165.32 h 281.26 l -227.54,165.32 86.91,-267.49 173.82,534.97 -227.53,-165.32 h 281.25 l -227.54,165.32 86.91,-267.48" /><path
             id="path130"
             style="fill:none;stroke:#000000;stroke-width:7.5;stroke-linecap:round;stroke-linejoin:round;stroke-miterlimit:10;stroke-dasharray:none;stroke-opacity:1"
             d="m 3973.16,1862.11 86.91,267.48 L 3605,1798.96 h 281.25 l -227.54,165.31 86.91,-267.48 86.92,267.48 L 3605,1798.96 h 562.5 l -227.54,165.31 86.92,-267.48 86.91,267.48 -227.54,-165.31 h 281.25 l -910.14,661.26 173.82,-534.97 86.91,267.48 -227.54,-165.31 h 281.25 l -227.53,165.31 86.91,-267.48 173.82,534.97 -227.54,-165.32 h 281.25 l -227.53,165.32 86.91,-267.49 86.91,267.49 -455.07,-330.63 h 281.25 l -227.54,165.31 86.91,-267.48 86.91,267.48 -227.53,-165.31 h 562.5 l -227.54,165.31 86.91,-267.48 86.91,267.48 -227.53,-165.31 h 281.25 l -455.07,330.63 86.91,-267.49 86.91,267.49 -227.54,-165.32" /><path
             id="path132"
             style="fill:none;stroke:#000000;stroke-width:7.5;stroke-linecap:round;stroke-linejoin:round;stroke-miterlimit:10;stroke-dasharray:none;stroke-opacity:1"
             d="m 3203.64,2294.9 h 281.25 l -227.53,165.32 347.64,-1069.94 173.82,534.97 -227.53,-165.32 h 281.25 l -227.54,165.32 86.91,-267.48 86.91,267.48 -455.07,-330.63 H 3605 l -227.54,165.31 86.92,-267.48 86.91,267.48 -227.54,-165.31 h 562.5 l -227.54,165.31 86.91,-267.48 86.92,267.48 L 3605,1594.62 h 281.25 l -455.07,330.63 86.91,-267.48 86.91,267.48 -227.54,-165.32 h 281.25 l -227.53,165.32 173.82,-534.97 86.91,267.49 -227.53,-165.32 h 281.24 L 3518.09,1657.77 3605,1390.28 4995.58,5670.04 3175.29,4347.52 h 1125 l -455.08,330.62 86.92,-267.48 86.91,267.48 -227.54,-165.31 h 281.25 l -227.54,165.31" /><path
             id="path134"
             style="fill:none;stroke:#000000;stroke-width:7.5;stroke-linecap:round;stroke-linejoin:round;stroke-miterlimit:10;stroke-dasharray:none;stroke-opacity:1"
             d="m 3845.21,4678.14 173.83,-534.96 86.91,267.48 -227.54,-165.31 h 281.25 l -227.53,165.31 86.91,-267.48 173.82,534.96 -227.54,-165.31 h 281.25 l -227.53,165.31 86.91,-267.48 86.91,267.48 -455.07,-330.62 h 281.25 l -227.54,165.31 86.91,-267.48 86.91,267.48 -227.53,-165.31 h 562.5 l -227.54,165.31 86.91,-267.48 86.91,267.48 -227.53,-165.31 h 281.25 l -910.15,661.26 173.82,-534.98 86.92,267.49 -227.54,-165.31 h 281.25 l -227.54,165.31 86.91,-267.49 173.83,534.98 -227.54,-165.32 h 281.25 l -227.54,165.32 86.92,-267.49 86.91,267.49 -455.08,-330.64 h 281.25 l -227.53,165.32 86.91,-267.48 86.91,267.48" /><path
             id="path136"
             style="fill:none;stroke:#000000;stroke-width:7.5;stroke-linecap:round;stroke-linejoin:round;stroke-miterlimit:10;stroke-dasharray:none;stroke-opacity:1"
             d="m 3510.25,4843.46 -227.54,-165.32 h 562.5 l -227.53,165.32 86.91,-267.48 86.91,267.48 -227.54,-165.32 h 281.25 l -455.07,330.64 86.91,-267.49 86.91,267.49 -227.53,-165.32 h 281.25 l -227.54,165.32 347.65,-1069.94 173.82,534.96 -227.54,-165.31 h 281.25 l -227.53,165.31 86.91,-267.48 86.91,267.48 -455.07,-330.62 h 281.25 l -227.54,165.31 86.91,-267.48 86.91,267.48 -227.53,-165.31 h 562.5 l -227.54,165.31 86.91,-267.48 86.91,267.48 -227.53,-165.31 h 281.25 l -455.08,330.62 86.92,-267.48 86.91,267.48 -227.54,-165.31 h 281.25 l -227.54,165.31 173.83,-534.96 86.91,267.48 -227.54,-165.31 h 281.25" /><path
             id="path138"
             style="fill:none;stroke:#000000;stroke-width:7.5;stroke-linecap:round;stroke-linejoin:round;stroke-miterlimit:10;stroke-dasharray:none;stroke-opacity:1"
             d="m 3878.41,4041.01 -227.53,165.31 86.91,-267.48 347.64,1069.94 -455.07,-330.64 h 281.25 l -227.54,165.32 86.91,-267.48 86.91,267.48 -227.53,-165.32 h 562.5 l -227.54,165.32 86.91,-267.48 86.92,267.48 -227.54,-165.32 h 281.25 l -455.07,330.64 86.91,-267.49 86.91,267.49 -227.54,-165.32 h 281.25 l -227.53,165.32 173.82,-534.98 86.91,267.49 -227.54,-165.31 h 281.25 l -227.53,165.31 86.91,-267.49 173.82,534.98 -227.54,-165.32 h 281.26 l -227.54,165.32 86.91,-267.49 86.91,267.49 -910.14,-661.26 h 562.5 l -227.54,165.31 86.91,-267.48 86.91,267.48 -227.53,-165.31 h 281.25 l -455.08,330.62 86.92,-267.48" /><path
             id="path140"
             style="fill:none;stroke:#000000;stroke-width:7.5;stroke-linecap:round;stroke-linejoin:round;stroke-miterlimit:10;stroke-dasharray:none;stroke-opacity:1"
             d="m 3369.63,4410.66 86.91,267.48 L 3229,4512.83 h 281.25 l -227.54,165.31 173.83,-534.96 86.91,267.48 -227.54,-165.31 h 281.25 l -227.53,165.31 86.91,-267.48 173.82,534.96 -227.54,-165.31 h 281.25 l -227.53,165.31 86.91,-267.48 86.91,267.48 -455.07,-330.62 h 281.25 l -227.54,165.31 86.91,-267.48 86.91,267.48 -227.53,-165.31 h 2250 l -910.15,661.26 173.82,-534.98 86.92,267.49 -227.54,-165.31 h 281.25 l -227.54,165.31 86.91,-267.49 173.83,534.98 -227.54,-165.32 h 281.25 l -227.54,165.32 86.92,-267.49 86.91,267.49 -455.08,-330.64 h 281.25 l -227.53,165.32 86.91,-267.48 86.91,267.48 -227.54,-165.32" /><path
             id="path142"
             style="fill:none;stroke:#000000;stroke-width:7.5;stroke-linecap:round;stroke-linejoin:round;stroke-miterlimit:10;stroke-dasharray:none;stroke-opacity:1"
             d="m 4407.71,4678.14 h 562.5 l -227.53,165.32 86.91,-267.48 86.91,267.48 -227.54,-165.32 h 281.25 l -455.07,330.64 86.91,-267.49 86.91,267.49 -227.53,-165.32 h 281.25 l -227.54,165.32 347.65,-1069.94 173.82,534.96 -227.54,-165.31 h 281.25 l -227.53,165.31 86.91,-267.48 86.91,267.48 -455.07,-330.62 h 281.25 l -227.54,165.31 86.91,-267.48 86.91,267.48 -227.53,-165.31 h 562.5 l -227.54,165.31 86.91,-267.48 86.91,267.48 -227.53,-165.31 h 281.25 l -455.08,330.62 86.92,-267.48 86.91,267.48 -227.54,-165.31 h 281.25 l -227.54,165.31 173.83,-534.96 86.91,267.48 -227.54,-165.31 h 281.25 l -227.53,165.31" /><path
             id="path144"
             style="fill:none;stroke:#000000;stroke-width:7.5;stroke-linecap:round;stroke-linejoin:round;stroke-miterlimit:10;stroke-dasharray:none;stroke-opacity:1"
             d="m 4775.88,4206.32 86.91,-267.48 347.64,1069.94 -455.07,-330.64 h 281.25 l -227.54,165.32 86.91,-267.48 86.92,267.48 -227.54,-165.32 h 562.5 l -227.54,165.32 86.91,-267.48 86.92,267.48 -227.54,-165.32 h 281.25 l -455.07,330.64 86.91,-267.49 86.91,267.49 -227.54,-165.32 h 281.25 l -227.53,165.32 173.82,-534.98 86.91,267.49 -227.54,-165.31 h 281.25 l -227.53,165.31 86.91,-267.49 173.82,534.98 -227.53,-165.32 h 281.25 l -227.54,165.32 86.91,-267.49 86.91,267.49 -910.14,-661.26 h 562.5 l -227.54,165.31 86.91,-267.48 86.91,267.48 -227.53,-165.31 h 281.25 l -455.08,330.62 86.92,-267.48 86.91,267.48" /><path
             id="path146"
             style="fill:none;stroke:#000000;stroke-width:7.5;stroke-linecap:round;stroke-linejoin:round;stroke-miterlimit:10;stroke-dasharray:none;stroke-opacity:1"
             d="M 4581.54,4678.14 4354,4512.83 h 281.25 l -227.54,165.31 173.83,-534.96 86.91,267.48 -227.54,-165.31 h 281.25 l -227.53,165.31 86.91,-267.48 173.82,534.96 -227.54,-165.31 h 281.25 l -227.53,165.31 86.91,-267.48 86.91,267.48 -455.07,-330.62 h 281.25 l -227.54,165.31 86.91,-267.48 86.91,267.48 -227.53,-165.31 h 1125 l -455.08,330.62 86.92,-267.48 86.91,267.48 -227.54,-165.31 h 281.25 l -227.54,165.31 173.83,-534.96 86.91,267.48 -227.54,-165.31 h 281.25 l -227.53,165.31 86.91,-267.48 173.82,534.96 -227.54,-165.31 h 281.25 l -227.53,165.31 86.91,-267.48 86.91,267.48 -455.07,-330.62 h 281.25" /><path
             id="path148"
             style="fill:none;stroke:#000000;stroke-width:7.5;stroke-linecap:round;stroke-linejoin:round;stroke-miterlimit:10;stroke-dasharray:none;stroke-opacity:1"
             d="m 5144.04,4347.52 -227.54,165.31 86.91,-267.48 86.91,267.48 -227.53,-165.31 h 562.5 l -227.54,165.31 86.91,-267.48 86.91,267.48 -227.53,-165.31 h 281.25 L 3605,5670.04 l 347.64,-1069.95 173.82,534.98 -227.53,-165.32 h 281.25 l -227.54,165.32 86.91,-267.49 86.91,267.49 -455.07,-330.64 h 281.25 l -227.53,165.32 86.91,-267.48 86.91,267.48 -227.54,-165.32 h 562.5 l -227.53,165.32 86.91,-267.48 86.91,267.48 -227.54,-165.32 h 281.25 l -455.07,330.64 86.91,-267.49 86.91,267.49 -227.53,-165.32 h 281.25 l -227.54,165.32 173.82,-534.98 86.91,267.49 -227.53,-165.31 h 281.25 l -227.54,165.31 86.91,-267.49" /><path
             id="path150"
             style="fill:none;stroke:#000000;stroke-width:7.5;stroke-linecap:round;stroke-linejoin:round;stroke-miterlimit:10;stroke-dasharray:none;stroke-opacity:1"
             d="m 3952.64,4600.09 347.65,1069.95 -455.08,-330.63 h 281.25 l -227.53,165.31 86.91,-267.49 86.91,267.49 -227.54,-165.31 h 562.5 l -227.53,165.31 86.91,-267.49 86.91,267.49 -227.54,-165.31 h 281.25 l -455.07,330.63 86.91,-267.49 86.91,267.49 -227.53,-165.32 h 281.25 l -227.54,165.32 173.82,-534.97 86.92,267.48 -227.54,-165.32 h 281.25 l -227.54,165.32 86.91,-267.48 173.83,534.97 -227.54,-165.32 H 4354 l -227.54,165.32 86.92,-267.49 86.91,267.49 -910.15,-661.26 h 562.5 l -227.53,165.31 86.91,-267.48 86.91,267.48 -227.54,-165.31 h 281.25 l -455.07,330.63 86.91,-267.49 86.91,267.49 -227.53,-165.32" /><path
             id="path152"
             style="fill:none;stroke:#000000;stroke-width:7.5;stroke-linecap:round;stroke-linejoin:round;stroke-miterlimit:10;stroke-dasharray:none;stroke-opacity:1"
             d="m 3443.86,5174.09 h 281.25 l -227.54,165.32 173.82,-534.98 86.91,267.49 -227.53,-165.31 h 281.25 l -227.54,165.31 86.91,-267.49 173.82,534.98 -227.53,-165.32 h 281.25 l -227.54,165.32 86.91,-267.49 86.91,267.49 -455.07,-330.63 h 281.25 l -227.53,165.31 86.91,-267.48 86.91,267.48 -227.54,-165.31 h 1125 l -455.07,330.63 86.91,-267.49 86.91,267.49 -227.53,-165.32 h 281.25 l -227.54,165.32 173.82,-534.98 86.91,267.49 -227.53,-165.31 h 281.25 l -227.54,165.31 86.91,-267.49 173.82,534.98 -227.53,-165.32 h 281.25 l -227.54,165.32 86.91,-267.49 86.91,267.49 -455.07,-330.63 h 281.25 l -227.53,165.31" /><path
             id="path154"
             style="fill:none;stroke:#000000;stroke-width:7.5;stroke-linecap:round;stroke-linejoin:round;stroke-miterlimit:10;stroke-dasharray:none;stroke-opacity:1"
             d="m 4006.36,5174.09 86.91,-267.48 86.91,267.48 -227.54,-165.31 h 562.5 l -227.53,165.31 86.91,-267.48 86.91,267.48 -227.54,-165.31 h 281.25 l -910.14,661.26 173.82,-534.97 86.91,267.48 -227.53,-165.32 h 281.25 l -227.54,165.32 86.91,-267.48 173.82,534.97 -227.53,-165.32 h 281.25 l -227.54,165.32 86.91,-267.49 86.91,267.49 -455.07,-330.63 h 281.25 l -227.53,165.31 86.91,-267.49 86.91,267.49 -227.54,-165.31 h 562.5 l -227.53,165.31 86.91,-267.49 86.91,267.49 -227.54,-165.31 h 281.25 l -455.07,330.63 86.91,-267.49 86.91,267.49 -227.53,-165.32 h 281.25 L 3605,5670.04 4300.29,3530.16 4647.93,4600.09" /><path
             id="path156"
             style="fill:none;stroke:#000000;stroke-width:7.5;stroke-linecap:round;stroke-linejoin:round;stroke-miterlimit:10;stroke-dasharray:none;stroke-opacity:1"
             d="m 4647.93,4600.09 -455.07,-330.63 h 281.25 l -227.54,165.32 86.91,-267.48 86.92,267.48 -227.54,-165.32 h 562.5 l -227.54,165.32 86.91,-267.48 86.92,267.48 -227.54,-165.32 h 281.25 l -455.07,330.63 86.91,-267.48 86.91,267.48 -227.54,-165.31 h 281.25 l -227.53,165.31 173.82,-534.97 86.91,267.49 -227.54,-165.31 h 281.25 l -227.53,165.31 86.91,-267.49 173.82,534.97 -227.53,-165.31 h 281.25 l -227.54,165.31 86.91,-267.48 86.91,267.48 -910.14,-661.25 h 562.5 l -227.54,165.31 86.91,-267.48 86.91,267.48 -227.53,-165.31 h 281.25 l -455.08,330.62 86.92,-267.48 86.91,267.48 -227.54,-165.31 h 281.25" /><path
             id="path158"
             style="fill:none;stroke:#000000;stroke-width:7.5;stroke-linecap:round;stroke-linejoin:round;stroke-miterlimit:10;stroke-dasharray:none;stroke-opacity:1"
             d="m 4072.75,4104.15 -227.54,165.31 173.83,-534.96 86.91,267.48 -227.54,-165.31 h 281.25 l -227.53,165.31 86.91,-267.48 173.82,534.96 -227.54,-165.31 h 281.25 l -227.53,165.31 86.91,-267.48 86.91,267.48 -455.07,-330.62 h 281.25 l -227.54,165.31 86.91,-267.48 86.91,267.48 -227.53,-165.31 h 1125 l -455.08,330.62 86.92,-267.48 86.91,267.48 L 4354,4104.15 h 281.25 l -227.54,165.31 173.83,-534.96 86.91,267.48 -227.54,-165.31 h 281.25 l -227.53,165.31 86.91,-267.48 173.82,534.96 -227.54,-165.31 h 281.25 l -227.53,165.31 86.91,-267.48 86.91,267.48 -455.07,-330.62 h 281.25 l -227.54,165.31 86.91,-267.48" /><path
             id="path160"
             style="fill:none;stroke:#000000;stroke-width:7.5;stroke-linecap:round;stroke-linejoin:round;stroke-miterlimit:10;stroke-dasharray:none;stroke-opacity:1"
             d="m 4440.91,3836.67 86.91,267.48 -227.53,-165.31 h 562.5 l -227.54,165.31 86.91,-267.48 86.91,267.48 -227.53,-165.31 h 281.25 l -910.15,661.25 173.82,-534.97 86.92,267.49 -227.54,-165.31 h 281.25 l -227.54,165.31 86.91,-267.49 173.83,534.97 -227.54,-165.31 H 4354 l -227.54,165.31 86.92,-267.48 86.91,267.48 -455.08,-330.63 h 281.25 l -227.53,165.32 86.91,-267.48 86.91,267.48 -227.54,-165.32 h 562.5 l -227.53,165.32 86.91,-267.48 86.91,267.48 -227.54,-165.32 h 281.25 l -455.07,330.63 86.91,-267.48 86.91,267.48 -227.53,-165.31 h 281.25 l -227.54,165.31 347.65,-1069.93 173.82,534.96 -227.54,-165.31" /><path
             id="path162"
             style="fill:none;stroke:#000000;stroke-width:7.5;stroke-linecap:round;stroke-linejoin:round;stroke-miterlimit:10;stroke-dasharray:none;stroke-opacity:1"
             d="m 4246.57,3899.81 h 281.25 l -227.53,165.31 86.91,-267.48 86.91,267.48 -455.07,-330.62 h 281.25 l -227.54,165.31 86.91,-267.48 86.91,267.48 -227.53,-165.31 h 562.5 l -227.54,165.31 86.91,-267.48 86.91,267.48 -227.53,-165.31 h 281.25 l -455.08,330.62 86.92,-267.48 86.91,267.48 -227.54,-165.31 H 4354 l -227.54,165.31 173.83,-534.96 86.91,267.48 -227.54,-165.31 h 281.25 l -227.53,165.31 86.91,-267.48 695.29,2139.88 -910.15,-661.26 h 562.5 l -227.53,165.31 86.91,-267.48 86.91,267.48 -227.54,-165.31 h 281.25 l -455.07,330.63 86.91,-267.49 86.91,267.49 -227.53,-165.32 h 281.25 l -227.54,165.32" /><path
             id="path164"
             style="fill:none;stroke:#000000;stroke-width:7.5;stroke-linecap:round;stroke-linejoin:round;stroke-miterlimit:10;stroke-dasharray:none;stroke-opacity:1"
             d="m 4192.86,5339.41 173.82,-534.98 86.91,267.49 -227.53,-165.31 h 281.25 l -227.54,165.31 86.91,-267.49 173.82,534.98 -227.53,-165.32 h 281.25 l -227.54,165.32 86.91,-267.49 86.91,267.49 -455.07,-330.63 h 281.25 l -227.53,165.31 86.91,-267.48 86.91,267.48 -227.54,-165.31 h 1125 l -455.07,330.63 86.91,-267.49 86.91,267.49 -227.53,-165.32 h 281.25 l -227.54,165.32 173.82,-534.98 86.91,267.49 -227.53,-165.31 h 281.25 l -227.54,165.31 86.91,-267.49 173.82,534.98 -227.53,-165.32 h 281.25 l -227.54,165.32 86.91,-267.49 86.91,267.49 -455.07,-330.63 h 281.25 l -227.53,165.31 86.91,-267.48 86.91,267.48" /><path
             id="path166"
             style="fill:none;stroke:#000000;stroke-width:7.5;stroke-linecap:round;stroke-linejoin:round;stroke-miterlimit:10;stroke-dasharray:none;stroke-opacity:1"
             d="m 4875.47,5174.09 -227.54,-165.31 h 562.5 l -227.53,165.31 86.91,-267.48 86.91,267.48 -227.54,-165.31 h 281.25 l -910.14,661.26 173.82,-534.97 86.91,267.48 -227.54,-165.32 h 281.25 l -227.53,165.32 86.91,-267.48 173.82,534.97 -227.53,-165.32 h 281.25 l -227.54,165.32 86.91,-267.49 86.91,267.49 -455.07,-330.63 h 281.25 l -227.54,165.31 86.91,-267.49 86.92,267.49 -227.54,-165.31 h 562.5 l -227.54,165.31 86.91,-267.49 86.92,267.49 -227.54,-165.31 h 281.25 l -455.07,330.63 86.91,-267.49 86.91,267.49 -227.54,-165.32 h 281.25 l -227.53,165.32 347.64,-1069.95 173.82,534.98 -227.53,-165.32 h 281.25" /><path
             id="path168"
             style="fill:none;stroke:#000000;stroke-width:7.5;stroke-linecap:round;stroke-linejoin:round;stroke-miterlimit:10;stroke-dasharray:none;stroke-opacity:1"
             d="m 4875.47,4969.75 -227.54,165.32 86.91,-267.49 86.91,267.49 -455.07,-330.64 h 281.25 l -227.53,165.32 86.91,-267.48 86.91,267.48 -227.54,-165.32 h 562.5 l -227.53,165.32 86.91,-267.48 86.91,267.48 -227.54,-165.32 h 281.25 l -455.07,330.64 86.91,-267.49 86.91,267.49 -227.53,-165.32 h 281.25 l -227.54,165.32 173.82,-534.98 86.91,267.49 -227.53,-165.31 h 281.25 l -227.54,165.31 86.91,-267.49 347.65,1069.95 -455.08,-330.63 h 281.25 l -227.53,165.31 86.91,-267.49 86.91,267.49 -227.54,-165.31 H 5103 l -227.53,165.31 86.91,-267.49 86.91,267.49 -227.54,-165.31 H 5103 l -455.07,330.63 86.91,-267.49" /><path
             id="path170"
             style="fill:none;stroke:#000000;stroke-width:7.5;stroke-linecap:round;stroke-linejoin:round;stroke-miterlimit:10;stroke-dasharray:none;stroke-opacity:1"
             d="m 4734.84,5402.55 86.91,267.49 -227.53,-165.32 h 281.25 l -227.54,165.32 173.82,-534.97 86.91,267.48 -227.53,-165.32 h 281.25 l -227.54,165.32 86.91,-267.48 173.83,534.97 -227.54,-165.32 h 281.25 l -227.54,165.32 86.91,-267.49 86.92,267.49 L 1355,3025 h 2250 l -910.14,661.26 173.82,-534.97 86.91,267.48 -227.54,-165.31 h 281.25 l -227.53,165.31 86.91,-267.48 173.82,534.97 -227.54,-165.31 h 281.25 l -227.53,165.31 86.91,-267.49 86.91,267.49 -455.07,-330.63 h 281.25 l -227.54,165.32 86.91,-267.49 86.91,267.49 -227.53,-165.32 h 562.5 l -227.54,165.32 86.91,-267.49 86.91,267.49 -227.53,-165.32" /><path
             id="path172"
             style="fill:none;stroke:#000000;stroke-width:7.5;stroke-linecap:round;stroke-linejoin:round;stroke-miterlimit:10;stroke-dasharray:none;stroke-opacity:1"
             d="m 2868.68,3355.63 h 281.25 l -455.07,330.63 86.91,-267.49 86.91,267.49 -227.54,-165.31 h 281.25 l -227.53,165.31 347.64,-1069.94 173.82,534.97 -227.53,-165.31 h 281.25 l -227.54,165.31 86.91,-267.49 86.91,267.49 -455.07,-330.63 h 281.25 l -227.54,165.32 86.92,-267.49 86.91,267.49 -227.54,-165.32 h 562.5 l -227.54,165.32 86.91,-267.49 86.92,267.49 -227.54,-165.32 h 281.25 l -455.07,330.63 86.91,-267.49 86.91,267.49 -227.54,-165.31 h 281.25 l -227.53,165.31 173.82,-534.97 86.91,267.48 -227.53,-165.31 h 281.24 l -227.53,165.31 86.91,-267.48 347.64,1069.94 -455.07,-330.63 h 281.25 l -227.53,165.32" /><path
             id="path174"
             style="fill:none;stroke:#000000;stroke-width:7.5;stroke-linecap:round;stroke-linejoin:round;stroke-miterlimit:10;stroke-dasharray:none;stroke-opacity:1"
             d="m 2988.79,3520.95 86.91,-267.49 86.91,267.49 -227.54,-165.32 h 562.5 l -227.53,165.32 86.91,-267.49 86.91,267.49 -227.54,-165.32 h 281.25 l -455.07,330.63 86.91,-267.49 86.91,267.49 -227.53,-165.31 h 281.25 l -227.54,165.31 173.82,-534.97 86.91,267.48 -227.53,-165.31 h 281.25 l -227.54,165.31 86.91,-267.48 173.82,534.97 -227.53,-165.31 h 281.25 l -227.54,165.31 86.91,-267.49 86.91,267.49 L 2480,3025 h 562.5 l -227.54,165.32 86.92,-267.49 86.91,267.49 L 2761.25,3025 h 281.25 l -455.07,330.63 86.91,-267.49 86.91,267.49 -227.54,-165.31 h 281.25 l -227.53,165.31 173.82,-534.97 86.91,267.48" /><path
             id="path176"
             style="fill:none;stroke:#000000;stroke-width:7.5;stroke-linecap:round;stroke-linejoin:round;stroke-miterlimit:10;stroke-dasharray:none;stroke-opacity:1"
             d="m 2848.16,3088.14 -227.54,-165.31 h 281.26 l -227.54,165.31 86.91,-267.48 173.82,534.97 -227.53,-165.31 h 281.25 l -227.54,165.31 86.91,-267.49 86.91,267.49 L 2480,3025 h 281.25 l -227.54,165.32 86.91,-267.49 86.92,267.49 L 2480,3025 h 1125 l -455.07,330.63 86.91,-267.49 86.91,267.49 -227.54,-165.31 h 281.25 l -227.53,165.31 173.82,-534.97 86.91,267.48 -227.54,-165.31 h 281.26 l -227.54,165.31 86.91,-267.48 173.82,534.97 -227.53,-165.31 h 281.25 l -227.54,165.31 86.91,-267.49 86.91,267.49 L 3042.5,3025 h 281.25 l -227.54,165.32 86.91,-267.49 86.92,267.49 L 3042.5,3025 H 3605" /><path
             id="path178"
             style="fill:none;stroke:#000000;stroke-width:7.5;stroke-linecap:round;stroke-linejoin:round;stroke-miterlimit:10;stroke-dasharray:none;stroke-opacity:1"
             d="m 3605,3025 -227.54,165.32 86.92,-267.49 86.91,267.49 L 3323.75,3025 H 3605 l -1820.29,1322.52 347.65,-1069.94 173.82,534.97 -227.54,-165.32 h 281.25 l -227.53,165.32 86.91,-267.49 86.91,267.49 -455.07,-330.63 h 281.25 l -227.54,165.31 86.91,-267.48 86.91,267.48 -227.53,-165.31 h 562.5 l -227.54,165.31 86.91,-267.48 86.91,267.48 -227.53,-165.31 h 281.25 l -455.07,330.63 86.91,-267.49 86.91,267.49 -227.54,-165.32 h 281.25 l -227.53,165.32 173.82,-534.97 86.91,267.48 -227.54,-165.31 h 281.25 l -227.53,165.31 86.91,-267.48 347.64,1069.94 -455.07,-330.63 h 281.25 l -227.54,165.31 86.91,-267.48" /><path
             id="path180"
             style="fill:none;stroke:#000000;stroke-width:7.5;stroke-linecap:round;stroke-linejoin:round;stroke-miterlimit:10;stroke-dasharray:none;stroke-opacity:1"
             d="m 2165.55,3914.72 86.91,267.48 -227.53,-165.31 h 562.5 l -227.54,165.31 86.91,-267.48 86.91,267.48 -227.53,-165.31 h 281.25 l -455.07,330.63 86.91,-267.49 86.91,267.49 -227.54,-165.32 h 281.25 l -227.53,165.32 173.82,-534.97 86.91,267.48 -227.54,-165.31 h 281.25 l -227.53,165.31 86.91,-267.48 173.82,534.97 -227.54,-165.32 h 281.25 l -227.53,165.32 86.91,-267.49 86.91,267.49 -910.14,-661.26 h 562.5 l -227.54,165.31 86.91,-267.48 86.91,267.48 -227.53,-165.31 h 281.25 l -455.07,330.63 86.91,-267.49 86.91,267.49 -227.54,-165.32 h 281.25 l -227.53,165.32 173.82,-534.97 86.91,267.48 -227.54,-165.31" /><path
             id="path182"
             style="fill:none;stroke:#000000;stroke-width:7.5;stroke-linecap:round;stroke-linejoin:round;stroke-miterlimit:10;stroke-dasharray:none;stroke-opacity:1"
             d="m 1710.48,3584.09 h 281.25 l -227.53,165.31 86.91,-267.48 173.82,534.97 -227.54,-165.32 h 281.25 l -227.53,165.32 86.91,-267.49 86.91,267.49 -455.07,-330.63 h 281.25 l -227.54,165.31 86.91,-267.48 86.91,267.48 -227.53,-165.31 h 1125 l -455.07,330.63 86.91,-267.49 86.91,267.49 -227.54,-165.32 h 281.25 l -227.53,165.32 173.82,-534.97 86.91,267.48 -227.54,-165.31 h 281.25 l -227.53,165.31 86.91,-267.48 173.82,534.97 -227.54,-165.32 h 281.25 l -227.53,165.32 86.91,-267.49 86.91,267.49 -455.07,-330.63 h 281.25 l -227.54,165.31 86.91,-267.48 86.91,267.48 -227.53,-165.31 h 562.5 l -227.54,165.31" /><path
             id="path184"
             style="fill:none;stroke:#000000;stroke-width:7.5;stroke-linecap:round;stroke-linejoin:round;stroke-miterlimit:10;stroke-dasharray:none;stroke-opacity:1"
             d="m 2467.32,3851.57 86.91,-267.48 86.91,267.48 -227.53,-165.31 h 281.25 l -910.15,661.26 173.83,-534.97 86.91,267.48 -227.54,-165.31 h 281.25 l -227.54,165.31 86.92,-267.48 173.82,534.97 -227.54,-165.32 h 281.25 l -227.53,165.32 86.91,-267.49 86.91,267.49 -455.07,-330.63 h 281.25 L 1731,4182.2 l 86.91,-267.48 86.91,267.48 -227.53,-165.31 h 562.5 l -227.54,165.31 86.91,-267.48 86.91,267.48 -227.53,-165.31 h 281.25 l -455.08,330.63 86.91,-267.49 86.92,267.49 L 1731,4182.2 h 281.25 L 1784.71,4347.52 2480,2207.64 2827.64,3277.58 2372.57,2946.95 h 281.25 l -227.53,165.32 86.91,-267.49 86.91,267.49" /><path
             id="path186"
             style="fill:none;stroke:#000000;stroke-width:7.5;stroke-linecap:round;stroke-linejoin:round;stroke-miterlimit:10;stroke-dasharray:none;stroke-opacity:1"
             d="m 2600.11,3112.27 -227.54,-165.32 h 562.5 l -227.53,165.32 86.91,-267.49 86.91,267.49 -227.54,-165.32 h 281.25 l -455.07,330.63 86.91,-267.49 86.91,267.49 -227.53,-165.31 h 281.25 l -227.54,165.31 173.82,-534.97 86.91,267.48 -227.53,-165.31 h 281.25 l -227.54,165.31 86.91,-267.48 173.82,534.97 -227.53,-165.31 h 281.25 l -227.54,165.31 86.91,-267.49 86.91,267.49 -910.14,-661.26 H 2480 l -227.54,165.31 86.92,-267.48 86.91,267.48 -227.54,-165.31 H 2480 l -455.07,330.63 86.91,-267.49 86.91,267.49 -227.54,-165.32 h 281.25 l -227.53,165.32 173.82,-534.97 86.91,267.48 -227.54,-165.31 h 281.26" /><path
             id="path188"
             style="fill:none;stroke:#000000;stroke-width:7.5;stroke-linecap:round;stroke-linejoin:round;stroke-miterlimit:10;stroke-dasharray:none;stroke-opacity:1"
             d="m 2339.38,2514.15 -227.54,165.31 86.91,-267.48 173.82,534.97 -227.53,-165.32 h 281.25 l -227.54,165.32 86.91,-267.49 86.91,267.49 -455.07,-330.63 h 281.25 l -227.54,165.31 86.91,-267.48 86.92,267.48 -227.54,-165.31 h 1125 l -455.07,330.63 86.91,-267.49 86.91,267.49 -227.54,-165.32 h 281.25 l -227.53,165.32 173.82,-534.97 86.91,267.48 -227.54,-165.31 h 281.26 l -227.54,165.31 86.91,-267.48 173.82,534.97 -227.53,-165.32 h 281.25 l -227.54,165.32 86.91,-267.49 86.91,267.49 L 2480,2616.32 h 281.25 l -227.54,165.31 86.91,-267.48 86.92,267.48 L 2480,2616.32 h 562.5 l -227.54,165.31 86.92,-267.48" /><path
             id="path190"
             style="fill:none;stroke:#000000;stroke-width:7.5;stroke-linecap:round;stroke-linejoin:round;stroke-miterlimit:10;stroke-dasharray:none;stroke-opacity:1"
             d="m 2901.88,2514.15 86.91,267.48 -227.54,-165.31 h 281.25 l -910.14,661.26 173.82,-534.97 86.91,267.48 -227.54,-165.31 h 281.25 l -227.53,165.31 86.91,-267.48 173.82,534.97 -227.54,-165.31 h 281.25 l -227.53,165.31 86.91,-267.49 86.91,267.49 -455.07,-330.63 h 281.25 l -227.54,165.32 86.91,-267.49 86.91,267.49 -227.53,-165.32 h 562.5 l -227.54,165.32 86.91,-267.49 86.91,267.49 -227.53,-165.32 h 281.25 l -455.07,330.63 86.91,-267.49 86.91,267.49 -227.54,-165.31 h 281.25 l -227.53,165.31 347.64,-1069.94 173.82,534.97 -227.53,-165.32 h 281.25 l -227.54,165.32 86.91,-267.49 86.91,267.49 -455.07,-330.63" /><path
             id="path192"
             style="fill:none;stroke:#000000;stroke-width:7.5;stroke-linecap:round;stroke-linejoin:round;stroke-miterlimit:10;stroke-dasharray:none;stroke-opacity:1"
             d="M 2198.75,2411.98 H 2480 l -227.54,165.31 86.92,-267.48 86.91,267.48 -227.54,-165.31 h 562.5 l -227.54,165.31 86.91,-267.48 86.92,267.48 L 2480,2411.98 h 281.25 l -455.07,330.63 86.91,-267.49 86.91,267.49 -227.54,-165.32 h 281.25 l -227.53,165.32 173.82,-534.97 86.91,267.48 -227.53,-165.31 h 281.24 l -227.53,165.31 86.91,-267.48 695.29,2139.88 -910.15,-661.26 h 562.5 l -227.53,165.31 86.91,-267.48 86.91,267.48 -227.54,-165.31 h 281.25 l -455.07,330.63 86.91,-267.49 86.91,267.49 -227.53,-165.32 h 281.25 l -227.54,165.32 173.82,-534.97 86.91,267.48 -227.53,-165.31 h 281.25 l -227.54,165.31" /><path
             id="path194"
             style="fill:none;stroke:#000000;stroke-width:7.5;stroke-linecap:round;stroke-linejoin:round;stroke-miterlimit:10;stroke-dasharray:none;stroke-opacity:1"
             d="m 2459.48,3749.4 86.91,-267.48 173.82,534.97 -227.53,-165.32 h 281.25 l -227.54,165.32 86.91,-267.49 86.91,267.49 -455.07,-330.63 h 281.25 l -227.53,165.31 86.91,-267.48 86.91,267.48 -227.54,-165.31 h 1125 l -455.07,330.63 86.91,-267.49 86.91,267.49 -227.53,-165.32 h 281.25 l -227.54,165.32 173.82,-534.97 86.91,267.48 -227.53,-165.31 h 281.25 l -227.54,165.31 86.91,-267.48 173.82,534.97 -227.53,-165.32 h 281.25 l -227.54,165.32 86.91,-267.49 86.91,267.49 -455.07,-330.63 h 281.25 l -227.53,165.31 86.91,-267.48 86.91,267.48 -227.54,-165.31 h 562.5 l -227.53,165.31 86.91,-267.48 86.91,267.48" /><path
             id="path196"
             style="fill:none;stroke:#000000;stroke-width:7.5;stroke-linecap:round;stroke-linejoin:round;stroke-miterlimit:10;stroke-dasharray:none;stroke-opacity:1"
             d="m 3336.43,3851.57 -227.54,-165.31 h 281.25 l -910.14,661.26 173.82,-534.97 86.91,267.48 -227.53,-165.31 h 281.25 l -227.54,165.31 86.91,-267.48 173.82,534.97 -227.53,-165.32 h 281.25 l -227.54,165.32 86.91,-267.49 86.91,267.49 -455.07,-330.63 h 281.25 l -227.53,165.31 86.91,-267.48 86.91,267.48 -227.54,-165.31 h 562.5 l -227.53,165.31 86.91,-267.48 86.91,267.48 -227.54,-165.31 h 281.25 l -455.07,330.63 86.91,-267.49 86.91,267.49 -227.53,-165.32 h 281.25 l -227.54,165.32 347.64,-1069.94 173.82,534.97 -227.53,-165.32 h 281.25 l -227.54,165.32 86.91,-267.49 86.91,267.49 -455.07,-330.63 h 281.25" /><path
             id="path198"
             style="fill:none;stroke:#000000;stroke-width:7.5;stroke-linecap:round;stroke-linejoin:round;stroke-miterlimit:10;stroke-dasharray:none;stroke-opacity:1"
             d="m 2827.64,3481.92 -227.53,165.31 86.91,-267.48 86.91,267.48 -227.54,-165.31 h 562.5 l -227.53,165.31 86.91,-267.48 86.91,267.48 -227.54,-165.31 h 281.25 l -455.07,330.63 86.91,-267.49 86.91,267.49 -227.53,-165.32 h 281.25 l -227.54,165.32 173.82,-534.97 86.91,267.48 -227.53,-165.31 h 281.25 l -227.54,165.31 86.91,-267.48 347.65,1069.94 -455.08,-330.63 h 281.25 l -227.53,165.31 86.91,-267.48 86.91,267.48 -227.54,-165.31 h 562.5 l -227.53,165.31 86.91,-267.48 86.91,267.48 -227.54,-165.31 h 281.25 l -455.07,330.63 86.91,-267.49 86.91,267.49 -227.53,-165.32 h 281.25 l -227.54,165.32 173.82,-534.97" /><path
             id="path200"
             style="fill:none;stroke:#000000;stroke-width:7.5;stroke-linecap:round;stroke-linejoin:round;stroke-miterlimit:10;stroke-dasharray:none;stroke-opacity:1"
             d="m 3001.46,3812.55 86.92,267.48 -227.54,-165.31 h 281.25 l -227.54,165.31 86.91,-267.48 173.83,534.97 -227.54,-165.32 H 3229 l -227.54,165.32 86.92,-267.49 86.91,267.49 L 1355,3025 h 1125 l -455.07,330.63 86.91,-267.49 86.91,267.49 -227.54,-165.31 h 281.25 l -227.53,165.31 173.82,-534.97 86.91,267.48 -227.54,-165.31 h 281.26 l -227.54,165.31 86.91,-267.48 173.82,534.97 -227.53,-165.31 h 281.25 l -227.54,165.31 86.91,-267.49 86.91,267.49 L 1917.5,3025 h 281.25 l -227.54,165.32 86.91,-267.49 86.92,267.49 L 1917.5,3025 H 2480 l -227.54,165.32 86.92,-267.49 86.91,267.49 L 2198.75,3025" /><path
             id="path202"
             style="fill:none;stroke:#000000;stroke-width:7.5;stroke-linecap:round;stroke-linejoin:round;stroke-miterlimit:10;stroke-dasharray:none;stroke-opacity:1"
             d="M 2198.75,3025 H 2480 l -910.14,661.26 173.82,-534.97 86.91,267.48 -227.54,-165.31 h 281.25 l -227.53,165.31 86.91,-267.48 173.82,534.97 -227.54,-165.31 h 281.25 l -227.53,165.31 86.91,-267.49 86.91,267.49 -455.07,-330.63 h 281.25 l -227.54,165.32 86.91,-267.49 86.91,267.49 -227.53,-165.32 h 562.5 l -227.54,165.32 86.91,-267.49 86.91,267.49 -227.53,-165.32 h 281.25 l -455.07,330.63 86.91,-267.49 86.91,267.49 -227.54,-165.31 h 281.25 l -227.53,165.31 347.64,-1069.94 173.82,534.97 -227.53,-165.31 h 281.25 l -227.54,165.31 86.91,-267.49 86.91,267.49 -455.07,-330.63 h 281.25 l -227.54,165.32" /><path
             id="path204"
             style="fill:none;stroke:#000000;stroke-width:7.5;stroke-linecap:round;stroke-linejoin:round;stroke-miterlimit:10;stroke-dasharray:none;stroke-opacity:1"
             d="m 1689.96,2985.98 86.92,-267.49 86.91,267.49 -227.54,-165.32 h 562.5 l -227.54,165.32 86.91,-267.49 86.92,267.49 -227.54,-165.32 h 281.25 l -455.07,330.63 86.91,-267.49 86.91,267.49 -227.54,-165.31 h 281.25 l -227.53,165.31 173.82,-534.97 86.91,267.48 -227.53,-165.31 h 281.24 l -227.53,165.31 86.91,-267.48 347.64,1069.94 -455.07,-330.63 h 281.25 l -227.53,165.32 86.91,-267.49 86.91,267.49 -227.54,-165.32 h 562.5 l -227.53,165.32 86.91,-267.49 86.91,267.49 -227.54,-165.32 h 281.25 l -455.07,330.63 86.91,-267.49 86.91,267.49 -227.53,-165.31 h 281.25 l -227.54,165.31 173.82,-534.97 86.91,267.48" /><path
             id="path206"
             style="fill:none;stroke:#000000;stroke-width:7.5;stroke-linecap:round;stroke-linejoin:round;stroke-miterlimit:10;stroke-dasharray:none;stroke-opacity:1"
             d="M 2178.23,3418.77 1950.7,3253.46 h 281.25 l -227.54,165.31 86.91,-267.48 173.82,534.97 -227.53,-165.31 h 281.25 l -227.54,165.31 86.91,-267.49 86.91,267.49 L 1355,3025 h 562.5 l -227.54,165.32 86.92,-267.49 86.91,267.49 L 1636.25,3025 h 281.25 l -455.07,330.63 86.91,-267.49 86.91,267.49 -227.54,-165.31 h 281.25 l -227.53,165.31 173.82,-534.97 86.91,267.48 -227.54,-165.31 h 281.26 l -227.54,165.31 86.91,-267.48 173.82,534.97 -227.53,-165.31 h 281.25 l -227.54,165.31 86.91,-267.49 86.91,267.49 L 1355,3025 h 281.25 l -227.54,165.32 86.91,-267.49 86.92,267.49 L 1355,3025" /></g></g></g></g></svg>